<svg width="231" height="231" viewBox="0 0 231 231" fill="none" xmlns="http://www.w3.org/2000/svg">
<g clip-path="url(#clip0_153_614)">
<path d="M139.614 230.999C147.338 230.999 154.073 224.264 154.073 216.54V182.772H163.728C169.521 182.772 173.382 178.909 173.382 173.117V76.6699H57.6191V173.118C57.6191 178.911 61.481 182.772 67.2737 182.772H76.9291V216.541C76.9291 224.264 83.663 231 91.3882 231C99.1111 231 105.846 224.264 105.846 216.541V182.772H125.156V216.541C125.155 224.264 131.89 230.999 139.614 230.999Z" fill="white"/>
<path d="M197.496 173.118C205.22 173.118 211.954 166.383 211.954 158.659V91.1229C211.954 83.4401 205.22 76.6699 197.496 76.6699C189.772 76.6699 183.037 83.4401 183.037 91.1229V158.659C183.037 166.382 189.771 173.118 197.496 173.118Z" fill="white"/>
<path d="M33.5045 173.118C41.2289 173.118 47.9636 166.383 47.9636 158.659V91.1229C47.9636 83.4401 41.2297 76.6699 33.5045 76.6699C25.7808 76.6699 19.0469 83.4401 19.0469 91.1229V158.659C19.0469 166.382 25.7808 173.118 33.5045 173.118Z" fill="white"/>
<path d="M161.796 1.45686C159.866 -0.48562 156.992 -0.48562 155.062 1.45686L142.113 14.3628L141.516 14.9594C133.838 11.1145 125.229 9.1944 115.642 9.1759C115.595 9.1759 115.549 9.17436 115.502 9.17436H115.5C115.452 9.17436 115.407 9.1759 115.359 9.1759C105.773 9.1944 97.164 11.1145 89.4866 14.9594L88.8877 14.3628L75.9393 1.45686C74.0076 -0.48562 71.1356 -0.48562 69.2054 1.45686C67.2737 3.38855 67.2737 6.25524 69.2054 8.18539L81.7313 20.7136C77.6953 23.4084 74.0354 26.706 70.8527 30.4776C63.2331 39.5094 58.373 51.2637 57.7047 63.9993C57.6985 64.1319 57.6854 64.2629 57.6793 64.3955C57.6384 65.2627 57.6191 66.1345 57.6191 67.0093H173.382C173.382 66.1345 173.362 65.2627 173.322 64.3955C173.316 64.2629 173.303 64.1319 173.295 63.9993C172.629 51.2637 167.767 39.5086 160.147 30.4784C156.966 26.7068 153.305 23.4092 149.269 20.7144L161.796 8.18616C163.728 6.25524 163.728 3.38855 161.796 1.45686ZM91.3697 50.1522C87.3753 50.1522 84.1371 46.9139 84.1371 42.9195C84.1371 38.9251 87.3753 35.6869 91.3697 35.6869C95.3641 35.6869 98.6024 38.9251 98.6024 42.9195C98.6024 46.9139 95.3641 50.1522 91.3697 50.1522ZM139.632 50.1522C135.637 50.1522 132.399 46.9139 132.399 42.9195C132.399 38.9251 135.637 35.6869 139.632 35.6869C143.626 35.6869 146.864 38.9251 146.864 42.9195C146.864 46.9139 143.626 50.1522 139.632 50.1522Z" fill="white"/>
</g>
<defs>
<clipPath id="clip0_153_614">
<rect width="231" height="231" fill="white"/>
</clipPath>
</defs>
</svg>
