<svg width="226" height="226" viewBox="0 0 226 226" fill="none" xmlns="http://www.w3.org/2000/svg">
<g clip-path="url(#clip0_153_607)">
<path d="M182.887 140.494C180.121 134.141 178.566 126.999 178.566 119.48C178.566 116.29 178.849 113.218 179.383 110.256C181.661 97.4446 188.638 86.8618 198.255 80.0016C199.984 78.7843 201.791 77.6838 203.661 76.7099C190.681 56.2303 169.53 54.4781 162.883 53.779C148.425 52.2707 128.044 65.0539 116.981 65.0539H116.682C105.62 65.0539 85.2378 52.2707 70.7805 53.779C63.5841 54.5175 40.5775 58.5955 26.7025 80.7013C21.8305 88.4567 18.0755 98.0026 16.5355 110.601C15.9846 115.143 15.7179 119.889 15.7804 125.153C15.8434 130.44 16.2679 135.536 16.9902 140.58C18.5464 151.352 21.4696 161.48 25.2407 170.787C29.4362 181.111 34.6848 190.375 40.263 198.26C52.6001 215.726 66.5694 225.811 74.4578 225.992C90.6436 226.353 104.708 215.404 116.321 215.687C116.447 215.726 116.572 215.726 116.682 215.719L116.839 215.703L116.981 215.719C117.091 215.727 117.216 215.719 117.327 215.68C128.939 215.381 143.019 226.338 159.237 225.977C167.094 225.796 181.08 215.703 193.416 198.237C198.994 190.352 204.242 181.073 208.407 170.741C209.035 169.201 209.633 167.637 210.229 166.05C198.161 162.282 188.229 152.838 182.887 140.494Z" fill="white"/>
<path d="M145.266 36.9919C157.713 22.2675 157.225 1.07258 156.094 0.138003C154.978 -0.812708 134.425 2.96594 121.68 17.1918C108.935 31.4369 109.722 53.1106 110.853 54.0533C111.968 54.9964 132.837 51.7118 145.266 36.9919Z" fill="white"/>
</g>
<defs>
<clipPath id="clip0_153_607">
<rect width="226" height="226" fill="white"/>
</clipPath>
</defs>
</svg>
