<svg width="217" height="217" viewBox="0 0 217 217" fill="none" xmlns="http://www.w3.org/2000/svg">
<path d="M155.739 36.3984C137.945 36.3984 124.036 49.7999 111.445 66.8242C94.142 44.7932 79.6716 36.3984 62.3549 36.3984C27.0504 36.3984 0 82.3444 0 130.975C0 161.407 14.7225 180.601 39.3821 180.601C57.1308 180.601 69.8956 172.233 92.5878 132.566C92.5878 132.566 102.047 115.862 108.555 104.355C110.835 108.036 113.231 111.998 115.76 116.257L126.401 134.157C147.129 168.845 158.679 180.6 179.606 180.6C203.63 180.6 217 161.144 217 130.08C217 79.1618 189.34 36.3984 155.739 36.3984ZM75.2837 121.826C56.8854 150.667 50.5207 157.131 40.2772 157.131C29.7354 157.131 23.4703 147.876 23.4703 131.373C23.4703 96.0683 41.0732 59.9679 62.0569 59.9679C73.4202 59.9679 82.9165 66.5305 97.4618 87.354C83.6501 108.539 75.2837 121.826 75.2837 121.826ZM144.721 118.195L131.998 96.9762C128.555 91.3766 125.256 86.2309 122.072 81.5132C133.539 63.8146 142.997 54.9956 154.247 54.9956C177.618 54.9956 196.315 89.4054 196.315 131.672C196.315 147.783 191.038 157.131 180.104 157.131C169.625 157.131 164.619 150.21 144.721 118.195Z" fill="white"/>
</svg>
