<svg width="200" height="200" viewBox="0 0 200 200" fill="none" xmlns="http://www.w3.org/2000/svg">
<g clip-path="url(#clip0_153_614)">
<path d="M120.878 199.999C127.565 199.999 133.397 194.168 133.397 187.48V158.244H141.756C146.772 158.244 150.115 154.9 150.115 149.885V66.3809H49.8867V149.886C49.8867 154.901 53.2303 158.244 58.2457 158.244H66.6053V187.481C66.6053 194.168 72.4355 200 79.124 200C85.8105 200 91.6414 194.168 91.6414 187.481V158.244H108.36V187.481C108.359 194.168 114.191 199.999 120.878 199.999Z" fill="white"/>
<path d="M170.993 149.886C177.68 149.886 183.511 144.055 183.511 137.367V78.8942C183.511 72.2425 177.68 66.3809 170.993 66.3809C164.306 66.3809 158.475 72.2425 158.475 78.8942V137.367C158.475 144.054 164.305 149.886 170.993 149.886Z" fill="white"/>
<path d="M29.0076 149.886C35.6955 149.886 41.5264 144.055 41.5264 137.367V78.8942C41.5264 72.2425 35.6961 66.3809 29.0076 66.3809C22.3205 66.3809 16.4902 72.2425 16.4902 78.8942V137.367C16.4902 144.054 22.3205 149.886 29.0076 149.886Z" fill="white"/>
<path d="M140.083 1.26135C138.412 -0.42045 135.924 -0.42045 134.253 1.26135L123.042 12.4353L122.524 12.9519C115.877 9.62296 108.423 7.96052 100.123 7.9445C100.082 7.9445 100.042 7.94317 100.002 7.94317H100C99.9583 7.94317 99.9196 7.9445 99.8775 7.9445C91.578 7.96052 84.1247 9.62296 77.4776 12.9519L76.959 12.4353L65.7484 1.26135C64.0759 -0.42045 61.5892 -0.42045 59.9181 1.26135C58.2457 2.93381 58.2457 5.4158 59.9181 7.08692L70.7631 17.9339C67.2687 20.267 64.0999 23.1221 61.3443 26.3876C54.7473 34.2073 50.5394 44.3842 49.9608 55.4106C49.9555 55.5254 49.9441 55.6389 49.9388 55.7537C49.9034 56.5045 49.8867 57.2593 49.8867 58.0167H150.115C150.115 57.2593 150.097 56.5045 150.063 55.7537C150.057 55.6389 150.046 55.5254 150.039 55.4106C149.462 44.3842 145.253 34.2066 138.656 26.3882C135.901 23.1227 132.731 20.2677 129.237 17.9345L140.083 7.08758C141.756 5.4158 141.756 2.93381 140.083 1.26135ZM79.108 43.4218C75.6496 43.4218 72.846 40.6181 72.846 37.1598C72.846 33.7014 75.6496 30.8977 79.108 30.8977C82.5664 30.8977 85.37 33.7014 85.37 37.1598C85.37 40.6181 82.5664 43.4218 79.108 43.4218ZM120.893 43.4218C117.435 43.4218 114.631 40.6181 114.631 37.1598C114.631 33.7014 117.435 30.8977 120.893 30.8977C124.352 30.8977 127.155 33.7014 127.155 37.1598C127.155 40.6181 124.352 43.4218 120.893 43.4218Z" fill="white"/>
</g>
<defs>
<clipPath id="clip0_153_614">
<rect width="200" height="200" fill="white"/>
</clipPath>
</defs>
</svg>
