<svg width="200" height="200" viewBox="0 0 200 200" fill="none" xmlns="http://www.w3.org/2000/svg">
<g clip-path="url(#clip0_153_607)">
<path d="M161.847 124.331C159.399 118.709 158.023 112.389 158.023 105.735C158.023 102.912 158.273 100.193 158.746 97.5716C160.762 86.2341 166.936 76.8687 175.447 70.7978C176.977 69.7205 178.576 68.7466 180.231 67.8848C168.744 49.7612 150.026 48.2106 144.144 47.5919C131.35 46.2572 113.314 57.5697 103.523 57.5697H103.259C93.4686 57.5697 75.4316 46.2572 62.6376 47.5919C56.2691 48.2454 35.9093 51.8543 23.6305 71.417C19.319 78.2802 15.996 86.7279 14.6332 97.8772C14.1456 101.896 13.9096 106.096 13.9649 110.755C14.0207 115.434 14.3963 119.943 15.0356 124.407C16.4127 133.94 18.9996 142.903 22.3368 151.139C26.0497 160.275 30.6944 168.473 35.6309 175.451C46.5487 190.908 58.9109 199.832 65.8919 199.993C80.2155 200.312 92.6616 190.623 102.939 190.873C103.05 190.908 103.161 190.908 103.259 190.902L103.397 190.888L103.523 190.902C103.62 190.909 103.731 190.902 103.829 190.867C114.105 190.603 126.566 200.299 140.918 199.979C147.87 199.819 160.248 190.888 171.164 175.43C176.101 168.453 180.746 160.241 184.431 151.098C184.987 149.735 185.516 148.352 186.043 146.947C175.364 143.612 166.574 135.255 161.847 124.331Z" fill="white"/>
<path d="M128.555 32.7362C139.569 19.7057 139.138 0.949188 138.137 0.122126C137.149 -0.719211 118.96 2.62472 107.682 15.214C96.4035 27.8202 97.0994 47.0006 98.1004 47.8348C99.0876 48.6694 117.556 45.7627 128.555 32.7362Z" fill="white"/>
</g>
<defs>
<clipPath id="clip0_153_607">
<rect width="200" height="200" fill="white"/>
</clipPath>
</defs>
</svg>
