<svg width="200" height="200" viewBox="0 0 200 200" fill="none" xmlns="http://www.w3.org/2000/svg">
<g clip-path="url(#clip0_153_624)">
<path d="M143.538 33.5469C127.139 33.5469 114.319 45.8984 102.714 61.5891C86.7668 41.284 73.4301 33.5469 57.4699 33.5469C24.9312 33.5469 0 75.8934 0 120.714C0 148.762 13.5691 166.452 36.2969 166.452C52.6551 166.452 64.4199 158.74 85.3344 122.181C85.3344 122.181 94.0527 106.785 100.05 96.1793C102.152 99.5727 104.361 103.223 106.691 107.149L116.498 123.647C135.603 155.618 146.248 166.452 165.536 166.452C187.677 166.452 200 148.52 200 119.889C200 72.9602 174.507 33.5469 143.538 33.5469ZM69.3859 112.282C52.4289 138.863 46.5629 144.821 37.1219 144.821C27.4059 144.821 21.6316 136.291 21.6316 121.081C21.6316 88.5422 37.8555 55.2699 57.1953 55.2699C67.6684 55.2699 76.4207 61.3184 89.8266 80.5105C77.0969 100.036 69.3859 112.282 69.3859 112.282ZM133.384 108.936L121.657 89.3789C118.484 84.218 115.443 79.4754 112.509 75.1273C123.077 58.8152 131.795 50.6871 142.163 50.6871C163.703 50.6871 180.935 82.4012 180.935 121.356C180.935 136.205 176.071 144.821 165.995 144.821C156.336 144.821 151.722 138.442 133.384 108.936Z" fill="white"/>
</g>
<defs>
<clipPath id="clip0_153_624">
<rect width="200" height="200" fill="white"/>
</clipPath>
</defs>
</svg>
