<svg width="120" height="120" viewBox="0 0 120 120" fill="none" xmlns="http://www.w3.org/2000/svg">
<g clip-path="url(#clip0_147_360)">
<mask id="mask0_147_360" style="mask-type:luminance" maskUnits="userSpaceOnUse" x="0" y="0" width="120" height="120">
<path d="M120 0H0V120H120V0Z" fill="white"/>
</mask>
<g mask="url(#mask0_147_360)">
<path d="M60 0C26.9106 0 0 26.9106 0 60C0 93.0893 26.9106 120 60 120C93.0893 120 120 93.0893 120 60C120 26.9106 93.0893 0 60 0ZM60 114.894C29.7447 114.894 5.10637 90.281 5.10637 60C5.10637 29.7192 29.7447 5.10637 60 5.10637C90.2553 5.10637 114.894 29.7192 114.894 60C114.894 90.281 90.2553 114.894 60 114.894Z" fill="#143156"/>
</g>
<path d="M77.2812 19.4434C80.9577 19.4434 83.9492 22.4328 83.9492 26.1084V94.1152C83.9491 97.792 80.9578 100.781 77.2812 100.781H42.9473C39.2707 100.781 36.2794 97.7907 36.2793 94.1152V26.1084C36.2794 22.4328 39.2708 19.4434 42.9473 19.4434H77.2812ZM42.9473 23.0596C41.2651 23.0596 39.8966 24.4277 39.8965 26.1084V94.1152C39.8966 95.7959 41.2651 97.1641 42.9473 97.1641H77.2812C78.9634 97.1641 80.332 95.7959 80.332 94.1152V26.1084C80.332 24.4277 78.9635 23.0596 77.2812 23.0596H42.9473Z" fill="#143156" stroke="#143156" stroke-width="1.1875"/>
<path d="M63.5518 90.9639C64.5483 90.9639 65.3621 91.7713 65.3623 92.7715C65.3623 93.771 64.5481 94.5791 63.5518 94.5791H56.6768C55.6804 94.5791 54.8672 93.771 54.8672 92.7715C54.8674 91.7713 55.6802 90.9639 56.6768 90.9639H63.5518ZM53.0195 25.6406C54.0179 25.6406 54.8271 26.4504 54.8271 27.4492C54.8271 28.4463 54.0182 29.2578 53.0195 29.2578C52.0225 29.2576 51.2051 28.4502 51.2051 27.4492C51.2051 26.4553 52.0018 25.6406 53.0049 25.6406H53.0195ZM69.0439 27.4492C69.0439 28.447 68.2347 29.2577 67.2344 29.2578H57.6533C56.6563 29.2577 55.8438 28.4478 55.8438 27.4492C55.8438 26.4489 56.6567 25.6408 57.6533 25.6406H67.2344C68.2353 25.6408 69.0421 26.4506 69.0439 27.4482V27.4492Z" fill="#143156" stroke="#143156" stroke-width="1.1875"/>
</g>
<defs>
<clipPath id="clip0_147_360">
<rect width="120" height="120" fill="white"/>
</clipPath>
</defs>
</svg>
