<svg width="120" height="120" viewBox="0 0 120 120" fill="none" xmlns="http://www.w3.org/2000/svg">
<g clip-path="url(#clip0_147_347)">
<mask id="mask0_147_347" style="mask-type:luminance" maskUnits="userSpaceOnUse" x="0" y="0" width="120" height="120">
<path d="M120 0H0V120H120V0Z" fill="white"/>
</mask>
<g mask="url(#mask0_147_347)">
<path d="M60 0C26.9106 0 0 26.9106 0 60C0 93.0893 26.9106 120 60 120C93.0893 120 120 93.0893 120 60C120 26.9106 93.0893 0 60 0ZM60 114.894C29.7447 114.894 5.10637 90.281 5.10637 60C5.10637 29.7192 29.7447 5.10637 60 5.10637C90.2553 5.10637 114.894 29.7192 114.894 60C114.894 90.281 90.2553 114.894 60 114.894Z" fill="#143156"/>
</g>
<path d="M77.5127 46.5811C78.0249 32.2353 98.6974 32.2386 99.2119 46.5811V46.5957C99.2106 48.2517 98.8293 49.8855 98.0977 51.3711C97.47 52.6454 96.5973 53.7806 95.5342 54.7158C99.7157 56.3486 103.214 59.3667 105.44 63.2705L105.662 63.6709L105.664 63.6738C106.281 64.8466 106.588 66.1586 106.553 67.4834C106.518 68.8081 106.143 70.1018 105.465 71.2402C104.787 72.3786 103.827 73.3238 102.679 73.9854C101.53 74.6468 100.231 75.0029 98.9062 75.0186H80.7744C80.7377 76.0337 80.5257 77.0361 80.1436 77.9795C79.7108 79.0477 79.0703 80.0195 78.2598 80.8389C77.4491 81.6584 76.4836 82.3096 75.4199 82.7539C74.4893 83.1426 73.4993 83.3666 72.4941 83.417L72.0625 83.4277H47.1123C45.9614 83.4219 44.8228 83.1891 43.7617 82.7432C42.7006 82.2971 41.7372 81.6464 40.9277 80.8281C40.1183 80.0099 39.4775 79.0404 39.043 77.9746C38.6591 77.0331 38.4431 76.0325 38.4023 75.0186H20.2705C18.9454 75.003 17.6463 74.6468 16.498 73.9854C15.3498 73.3239 14.3902 72.3786 13.7119 71.2402C13.0337 70.1018 12.6591 68.8081 12.624 67.4834C12.589 66.1588 12.8947 64.8474 13.5117 63.6748L13.5137 63.6709C15.7251 59.5739 19.318 56.4042 23.6406 54.7158C22.5779 53.7808 21.7066 52.645 21.0791 51.3711C20.3474 49.8854 19.9662 48.2518 19.9648 46.5957V46.5811C20.4719 32.2261 41.1671 32.2531 41.6641 46.5811V46.5957C41.6627 48.2525 41.2812 49.8869 40.5488 51.373C39.9205 52.648 39.0476 53.7835 37.9834 54.7188C41.736 56.1982 44.945 58.7984 47.1709 62.168C48.622 61.2304 50.1729 60.4582 51.7969 59.8711C50.4433 58.7882 49.3273 57.4338 48.5254 55.8906C47.6053 54.12 47.1246 52.1536 47.123 50.1582V50.1436C47.7069 33.6581 71.4719 33.6671 72.0537 50.1436V50.1582C72.0522 52.1534 71.5713 54.1191 70.6514 55.8896C69.8492 57.4333 68.733 58.789 67.3789 59.8721C69.0017 60.4587 70.5518 61.2294 72.002 62.166C74.2244 58.7932 77.4355 56.1931 81.1904 54.7178C80.1269 53.7826 79.2549 52.6466 78.627 51.3721C77.8949 49.8861 77.5131 48.2522 77.5117 46.5957V46.5879L77.5127 46.5811ZM76.1006 72.4961C69.2768 59.4315 49.9017 59.4302 43.0762 72.4961L43.0732 72.501C42.694 73.2019 42.5035 73.9894 42.5195 74.7861C42.5356 75.5829 42.7578 76.3619 43.165 77.0469C43.5723 77.7319 44.1505 78.2995 44.8428 78.6943C45.5351 79.0891 46.3183 79.2972 47.1152 79.2988H72.0576C72.8518 79.2894 73.6303 79.0765 74.3184 78.6797C75.0065 78.2828 75.5814 77.7151 75.9873 77.0322C76.3931 76.3496 76.6167 75.5742 76.6367 74.7803C76.6567 73.9861 76.4727 73.1994 76.1016 72.4971L76.1006 72.4961ZM88.3506 57.4443C85.6789 57.4539 83.0547 58.1527 80.7324 59.4736C78.5037 60.7413 76.6266 62.5416 75.2646 64.71C77.1618 66.4777 78.727 68.5704 79.8877 70.8896H98.8955C99.5102 70.8817 100.113 70.7167 100.646 70.4092C101.178 70.1017 101.622 69.6622 101.936 69.1338C102.25 68.6054 102.423 68.0051 102.438 67.3906C102.454 66.7761 102.311 66.1677 102.024 65.624V65.623C100.699 63.1504 98.7277 61.0839 96.3203 59.6436C93.9119 58.2026 91.1572 57.4423 88.3506 57.4443ZM30.7979 57.4443C27.9963 57.4474 25.2476 58.209 22.8447 59.6494C20.4422 61.0896 18.4744 63.1541 17.1514 65.623C16.8645 66.1667 16.7228 66.7761 16.7383 67.3906C16.7539 68.005 16.9263 68.6054 17.2402 69.1338C17.5542 69.6622 17.9991 70.1007 18.5312 70.4082C19.0635 70.7157 19.6657 70.8816 20.2803 70.8896H39.2881C40.4485 68.5711 42.0128 66.4784 43.9092 64.7109C42.5435 62.5405 40.6625 60.7386 38.4297 59.4707C36.1027 58.1495 33.4738 57.4518 30.7979 57.4443ZM67.9238 50.1572C67.5624 39.1475 51.6139 39.1453 51.251 50.1572C51.6111 61.1694 67.5622 61.1715 67.9238 50.1572ZM30.8145 39.9404C29.0429 39.9405 27.3426 40.6399 26.084 41.8867C24.8254 43.1335 24.1105 44.8271 24.0938 46.5986C24.1123 48.3674 24.8273 50.0576 26.084 51.3027C27.3426 52.5496 29.0428 53.2499 30.8145 53.25C32.586 53.25 34.2863 52.5504 35.5449 51.3037C36.8019 50.0586 37.5175 48.3676 37.5361 46.5986L37.5244 46.2676C37.4274 44.6173 36.7249 43.0556 35.5449 41.8867C34.2863 40.64 32.586 39.9404 30.8145 39.9404ZM88.3623 39.9414C86.5907 39.9414 84.8905 40.641 83.6318 41.8877C82.3733 43.1343 81.6576 44.8273 81.6406 46.5986C81.6594 48.3674 82.375 50.0578 83.6318 51.3027C84.8903 52.5492 86.59 53.2489 88.3613 53.249C90.1328 53.249 91.8331 52.5493 93.0918 51.3027C94.3487 50.0578 95.0642 48.3675 95.083 46.5986C95.066 44.8273 94.3503 43.1343 93.0918 41.8877C91.8333 40.6411 90.1337 39.9415 88.3623 39.9414Z" fill="#143156" stroke="#143156" stroke-width="0.8"/>
</g>
<defs>
<clipPath id="clip0_147_347">
<rect width="120" height="120" fill="white"/>
</clipPath>
</defs>
</svg>
