<svg width="120" height="120" viewBox="0 0 120 120" fill="none" xmlns="http://www.w3.org/2000/svg">
<g clip-path="url(#clip0_217_153)">
<mask id="mask0_217_153" style="mask-type:luminance" maskUnits="userSpaceOnUse" x="0" y="0" width="120" height="120">
<path d="M120 0H0V120H120V0Z" fill="white"/>
</mask>
<g mask="url(#mask0_217_153)">
<path d="M60 0C26.9106 0 0 26.9106 0 60C0 93.0893 26.9106 120 60 120C93.0893 120 120 93.0893 120 60C120 26.9106 93.0893 0 60 0ZM60 114.894C29.7447 114.894 5.10637 90.281 5.10637 60C5.10637 29.7192 29.7447 5.10637 60 5.10637C90.2553 5.10637 114.894 29.7192 114.894 60C114.894 90.281 90.2553 114.894 60 114.894Z" fill="#143156"/>
</g>
<path d="M53.8564 34.6123C56.8608 31.5825 62.0772 33.1353 62.7695 37.4785C63.6793 43.1867 64.9199 52.2866 64.9199 59.585C64.9199 66.8833 63.6793 75.983 62.7695 81.6914C62.0774 86.0346 56.8609 87.5873 53.8564 84.5576L44.5107 75.1338C42.2534 72.8574 39.1901 71.5781 35.9961 71.5781C32.7364 71.5779 30.0949 68.9164 30.0947 65.6338V53.5371C30.0947 50.2544 32.7364 47.5921 35.9961 47.5918C39.1899 47.5918 42.2534 46.3132 44.5107 44.0371L53.8564 34.6123ZM57.792 37.7285C57.5883 37.6585 57.3405 37.6968 57.1318 37.9072L47.7861 47.3311C44.6605 50.483 40.419 52.2549 35.9961 52.2549C35.2938 52.2551 34.7236 52.8287 34.7236 53.5371V65.6338C34.7238 66.342 35.2939 66.9158 35.9961 66.916C40.4189 66.916 44.6605 68.6869 47.7861 71.8389L57.1318 81.2627C57.3405 81.473 57.5883 81.5115 57.792 81.4414C57.9972 81.3708 58.1614 81.1892 58.1992 80.9521C59.1042 75.2732 60.291 66.486 60.291 59.585C60.291 52.6839 59.1042 43.8966 58.1992 38.2178C58.1614 37.9806 57.9973 37.7991 57.792 37.7285Z" fill="#143156" stroke="#143156" stroke-width="0.1"/>
<path d="M79.415 36.3711C80.4695 35.6429 81.9098 35.913 82.6328 36.9746C86.6625 42.8936 89.0781 50.8808 89.0781 59.585C89.0781 68.2893 86.6626 76.2763 82.6328 82.1953C81.9099 83.2569 80.4695 83.5277 79.415 82.7998C78.3611 82.0717 78.0918 80.6205 78.8145 79.5586C82.2563 74.5033 84.4482 67.4596 84.4482 59.585C84.4482 51.7103 82.2563 44.6667 78.8145 39.6113C78.0919 38.5497 78.3611 37.0993 79.415 36.3711Z" fill="#143156" stroke="#143156" stroke-width="0.1"/>
<path d="M70.6641 42.2764C71.8165 41.7189 73.199 42.2085 73.752 43.3691C75.7989 47.6644 77 53.3905 77 59.5859C77 65.7814 75.7989 71.5075 73.752 75.8027C73.199 76.9634 71.8165 77.4529 70.6641 76.8955C69.5116 76.3382 69.0261 74.9466 69.5791 73.7861C71.2679 70.2424 72.3711 65.2325 72.3711 59.5859C72.3711 53.9396 71.2677 48.9302 69.5791 45.3867C69.0259 44.2263 69.5115 42.8337 70.6641 42.2764Z" fill="#143156" stroke="#143156" stroke-width="0.1"/>
</g>
<defs>
<clipPath id="clip0_217_153">
<rect width="120" height="120" fill="white"/>
</clipPath>
</defs>
</svg>
