<svg width="120" height="120" viewBox="0 0 120 120" fill="none" xmlns="http://www.w3.org/2000/svg">
<path fill-rule="evenodd" clip-rule="evenodd" d="M0 59.5756C0 27.3341 26.8626 1.19727 59.999 1.19727C93.137 1.19727 120 27.3338 120 59.5756C120 91.8173 93.137 117.954 59.999 117.954C26.8626 117.954 0 91.817 0 59.5756ZM114.543 59.5756C114.543 30.2666 90.123 6.50747 59.9993 6.50747C29.8769 6.50747 5.45773 30.2669 5.45773 59.5756C5.45773 88.8845 29.8769 112.644 59.9993 112.644C90.123 112.644 114.543 88.8848 114.543 59.5756Z" fill="#003057"/>
<path d="M86.4043 95.4041H32.1973C30.1283 95.4041 28.0594 94.3977 26.6111 92.9885C25.1628 91.5793 24.5421 89.3648 24.9559 87.1507L29.7145 58.5654C31.3697 49.3052 39.4386 42.6621 48.9559 42.6621H69.0249C78.5423 42.6621 86.4043 49.3052 88.0593 58.1629L93.4386 86.9492C93.8526 88.9623 93.2319 91.1768 91.7836 92.7871C90.5423 94.3977 88.6799 95.4041 86.4043 95.4041ZM49.1629 47.8961C42.3353 47.8961 36.3353 52.7275 35.3006 59.3706L30.3352 87.956C30.1283 88.7609 30.5421 89.1637 30.749 89.3648C30.9559 89.5662 31.3697 89.9687 32.1973 89.9687H86.4043C87.2319 89.9687 87.6456 89.5662 87.8526 89.3648C88.0593 89.1637 88.4733 88.5598 88.2663 87.7545L82.8869 59.1692C81.6456 52.7275 75.8526 47.8961 69.0249 47.8961H49.1629Z" fill="#003057"/>
<path d="M59.0892 84.5344C50.1925 84.5344 43.1582 77.4888 43.1582 69.034C43.1582 60.5791 50.3995 53.5332 59.0892 53.5332C67.7789 53.5332 75.0202 60.5791 75.0202 69.034C75.0202 77.4888 67.9859 84.5344 59.0892 84.5344ZM59.0892 58.5661C53.2962 58.5661 48.5375 63.1961 48.5375 68.8326C48.5375 74.469 53.2962 79.099 59.0892 79.099C64.8822 79.099 69.6409 74.469 69.6409 68.8326C69.6409 63.1961 65.0892 58.5661 59.0892 58.5661Z" fill="#003057"/>
<path d="M65.9171 65.0098L61.9861 70.6462C61.1584 71.854 59.2964 72.2565 58.0551 71.4515C56.8138 70.6462 56.3998 68.8345 57.2274 67.6267C57.4344 67.4253 57.6414 67.0225 58.0551 66.8214L63.8481 62.9967C64.4688 62.5939 65.5034 62.7953 65.9171 63.3992C66.3308 64.0031 66.3308 64.607 65.9171 65.0098Z" fill="#003057"/>
<path d="M70.2615 40.0469H48.7442C38.8132 40.0469 30.9512 34.8129 30.9512 27.9685C30.9512 26.5594 32.1925 25.3516 33.6409 25.3516C35.0892 25.3516 36.3305 26.5594 36.3305 27.9685C36.3305 31.1894 41.5029 34.8129 48.7442 34.8129H70.2615C77.5029 34.8129 82.6752 31.1894 82.6752 27.9685C82.6752 26.5594 83.9165 25.3516 85.3649 25.3516C86.8132 25.3516 88.0545 26.5594 88.0545 27.9685C88.0545 34.8129 80.1925 40.0469 70.2615 40.0469Z" fill="#003057"/>
</svg>
