<svg viewBox="198 91 1300 1300" fill="none" xmlns="http://www.w3.org/2000/svg">
  <defs>
    <linearGradient id="logoTextGrad" x1="351" y1="498" x2="1345" y2="985" gradientUnits="userSpaceOnUse">
      <stop offset="0%" stop-color="#FF6B9D"/>
      <stop offset="45%" stop-color="#FF4081"/>
      <stop offset="100%" stop-color="#E040FB"/>
    </linearGradient>
  </defs>
  <circle cx="848" cy="741" r="610" fill="none" stroke="url(#logoTextGrad)" stroke-width="14" opacity="0.85"/>
  <circle cx="848" cy="741" r="580" fill="none" stroke="url(#logoTextGrad)" stroke-width="4" opacity="0.35"/>
  <path d="M372.755 498C381.655 498 388.028 503.312 391.873 513.935L392.533 518.582V632.117H393.192C405.388 624.593 421.869 620.83 442.635 620.83C453.403 617.621 461.973 611.424 468.346 602.24C471.533 597.039 473.73 587.301 474.939 573.026C480.432 564.173 486.366 559.747 492.738 559.747H496.694C509 563.067 515.153 569.264 515.153 578.338V585.641C515.153 606.223 505.923 625.257 487.464 642.74C505.923 659.228 515.153 678.04 515.153 699.176V707.143C511.857 719.094 505.923 725.07 497.353 725.07H492.079C484.058 725.07 478.125 719.537 474.279 708.471C474.279 688.11 465.709 673.946 448.569 665.979C443.405 664.208 438.131 663.323 432.747 663.323H432.088C416.705 663.323 404.839 671.29 396.488 687.225C393.412 694.528 391.873 702.496 391.873 711.127C387.588 720.422 381.216 725.07 372.755 725.07H369.459C357.592 721.971 351.659 715.996 351.659 707.143L351 699.84V523.23C351 510.947 355.615 502.98 364.844 499.328L372.755 498Z" fill="url(#logoTextGrad)"/>
  <path d="M623.27 559.747C655.463 559.747 680.294 575.46 697.765 606.887C703.039 617.621 705.676 628.687 705.676 640.085V706.479C705.676 714.336 700.621 720.312 690.513 724.406L685.898 725.07H682.602C673.153 725.07 667 718.43 664.143 705.151V643.404C664.143 623.265 653.815 609.764 633.158 602.904L623.27 601.576C604.151 601.576 590.966 612.42 583.715 634.109L583.055 643.404C583.055 661.884 592.944 674.721 612.722 681.913C628.544 683.352 637.114 686.229 638.432 690.545C642.388 693.754 644.365 698.401 644.365 704.488V705.815C641.289 718.652 635.136 725.07 625.907 725.07H619.973C590.747 725.07 567.014 709.356 548.774 677.93C543.94 665.647 541.523 654.581 541.523 644.732V640.749C541.523 610.982 556.466 586.858 586.352 568.378C599.427 562.624 611.733 559.747 623.27 559.747Z" fill="url(#logoTextGrad)"/>
  <path d="M754.46 559.747C763.36 559.747 769.733 565.944 773.578 578.338V642.076C773.578 661.331 783.467 674.61 803.244 681.913L814.452 683.241C833.35 683.241 846.535 672.618 854.006 651.372C854.006 631.453 861.258 621.494 875.762 621.494C887.408 621.494 894.221 628.576 896.198 642.74C896.198 661.774 906.746 675.053 927.842 682.577L937.072 683.241C955.75 683.241 968.716 673.061 975.967 652.7L977.286 641.413V580.993C977.286 570.592 982.999 563.509 994.426 559.747H999.7C1008.16 559.747 1014.31 565.059 1018.16 575.682L1018.82 580.329V644.732C1018.82 675.384 1003 699.729 971.353 717.766C959.926 722.635 948.938 725.07 938.39 725.07H937.072C912.789 725.07 892.133 715.775 875.102 697.184C858.951 715.775 838.514 725.07 813.792 725.07H812.474C782.148 725.07 757.976 709.578 739.956 678.594C734.682 666.753 732.045 655.466 732.045 644.732V579.002C732.045 570.26 737.759 563.841 749.186 559.747H754.46Z" fill="url(#logoTextGrad)"/>
  <path d="M1126.94 559.747C1159.13 559.747 1183.96 575.46 1201.43 606.887C1206.7 617.621 1209.34 628.687 1209.34 640.085V706.479C1209.34 714.336 1204.29 720.312 1194.18 724.406L1189.56 725.07H1186.27C1176.82 725.07 1170.67 718.43 1167.81 705.151V643.404C1167.81 623.265 1157.48 609.764 1136.82 602.904L1126.94 601.576C1107.82 601.576 1094.63 612.42 1087.38 634.109L1086.72 643.404C1086.72 661.884 1096.61 674.721 1116.39 681.913C1132.21 683.352 1140.78 686.229 1142.1 690.545C1146.05 693.754 1148.03 698.401 1148.03 704.488V705.815C1144.95 718.652 1138.8 725.07 1129.57 725.07H1123.64C1094.41 725.07 1070.68 709.356 1052.44 677.93C1047.61 665.647 1045.19 654.581 1045.19 644.732V640.749C1045.19 610.982 1060.13 586.858 1090.02 568.378C1103.09 562.624 1115.4 559.747 1126.94 559.747Z" fill="url(#logoTextGrad)"/>
  <path d="M1257.47 498C1266.81 498 1273.4 503.976 1277.24 515.927V521.238C1277.24 529.537 1271.53 535.734 1260.1 539.829H1256.15C1244.39 539.829 1237.58 532.747 1235.71 518.582C1235.71 509.951 1240.55 503.533 1250.21 499.328L1257.47 498ZM1256.15 559.747C1267.25 559.747 1274.28 566.165 1277.24 579.002V706.479C1277.24 714.336 1272.19 720.312 1262.08 724.406L1257.47 725.07H1254.17C1242.3 722.193 1236.37 716.217 1236.37 707.143L1235.71 702.496V582.985C1235.71 571.919 1240.55 564.616 1250.21 561.075L1256.15 559.747Z" fill="url(#logoTextGrad)"/>
  <path d="M1325.37 498C1334.71 498 1341.3 503.976 1345.15 515.927V521.238C1345.15 529.537 1339.43 535.734 1328.01 539.829H1324.05C1312.29 539.829 1305.48 532.747 1303.61 518.582C1303.61 509.951 1308.45 503.533 1318.12 499.328L1325.37 498ZM1324.05 559.747C1335.15 559.747 1342.18 566.165 1345.15 579.002V706.479C1345.15 714.336 1340.09 720.312 1329.98 724.406L1325.37 725.07H1322.07C1310.21 722.193 1304.27 716.217 1304.27 707.143L1303.61 702.496V582.985C1303.61 571.919 1308.45 564.616 1318.12 561.075L1324.05 559.747Z" fill="url(#logoTextGrad)"/>
  <path d="M461.946 756.432H471.06C502.353 756.432 529.089 769.59 551.268 795.904C553.698 799.882 554.913 804.471 554.913 809.673V812.427C554.913 823.901 547.622 832.469 533.039 838.129L526.658 839.047C517.848 839.047 507.518 833.234 495.669 821.606C485.795 816.711 476.985 814.263 469.237 814.263H463.769C440.679 814.263 423.665 827.42 412.728 853.734L409.993 870.257C409.993 897.489 425.184 916.154 455.566 926.252L467.414 927.17C482.453 927.17 497.644 919.826 512.987 905.139L523.013 902.385H527.57C541.393 902.385 550.508 910.341 554.913 926.252V933.595C554.913 948.435 537.9 963.428 503.872 978.574C489.441 982.858 476.681 985 465.591 985C422.753 985 389.03 963.581 364.421 920.744C356.522 904.374 352.572 887.545 352.572 870.257C352.572 840.577 363.206 814.263 384.473 791.314C407.715 768.06 433.539 756.432 461.946 756.432Z" fill="url(#logoTextGrad)"/>
  <path d="M704.391 755.514C748.9 755.514 783.231 777.239 807.384 820.688C814.675 835.528 818.321 850.827 818.321 866.585V958.38C818.321 969.242 811.333 977.503 797.358 983.164L790.978 984.082H786.421C773.357 984.082 764.85 974.903 760.9 956.544V871.175C760.9 843.331 746.621 824.666 718.062 815.181L704.391 813.345C677.959 813.345 659.73 828.338 649.704 858.324L648.792 871.175C648.792 896.725 662.464 914.471 689.807 924.416C711.682 926.405 723.531 930.382 725.354 936.349C730.823 940.786 733.557 947.211 733.557 955.626V957.462C729.303 975.209 720.797 984.082 708.036 984.082H699.833C659.426 984.082 626.614 962.357 601.397 918.908C594.713 901.926 591.371 886.627 591.371 873.011V867.503C591.371 826.349 612.031 792.997 653.349 767.448C671.427 759.492 688.44 755.514 704.391 755.514Z" fill="url(#logoTextGrad)"/>
  <path d="M967.799 755.514C1011.7 755.514 1046.03 776.933 1070.79 819.77C1078.08 836.14 1081.73 851.745 1081.73 866.585V873.011C1081.73 884.485 1073.83 893.053 1058.03 898.713H1049.83C1038.44 898.713 1029.93 890.758 1024.31 874.847C1024.31 845.626 1011.55 826.043 986.028 816.099C979.344 814.263 972.964 813.345 966.887 813.345C942.734 813.345 925.112 827.114 914.023 854.652L912.2 871.175V954.708C912.2 968.171 905.516 977.656 892.148 983.164L886.68 984.082H882.123C869.818 984.082 861.007 977.044 855.691 962.969L854.779 957.462V870.257C854.779 823.136 878.173 787.642 924.961 763.776C941.215 758.268 955.494 755.514 967.799 755.514Z" fill="url(#logoTextGrad)"/>
  <path d="M1226.65 756.432H1237.59C1276.78 756.432 1309.29 777.851 1335.11 820.688C1341.8 837.058 1345.14 851.745 1345.14 864.75V873.929C1340.58 890.452 1332.38 898.713 1320.53 898.713L1308.68 899.631H1240.32C1221.94 899.631 1210.4 893.818 1205.69 882.19L1202.95 870.257C1206.45 851.286 1215.86 841.801 1231.21 841.801H1280.42C1268.88 822.83 1252.78 813.345 1232.12 813.345C1205.99 813.345 1187.76 827.726 1177.43 856.488L1175.61 870.257C1175.61 897.489 1190.19 915.848 1219.36 925.334C1225.28 926.558 1234.09 927.17 1245.79 927.17H1317.79C1332.07 927.17 1341.19 935.431 1345.14 951.954V959.298C1340.88 975.821 1332.68 984.082 1320.53 984.082L1310.5 985H1243.97C1204.17 985 1174.7 974.903 1155.56 954.708C1130.64 931.147 1118.19 902.997 1118.19 870.257C1118.19 824.972 1140.97 789.784 1186.55 764.694C1201.89 759.186 1215.26 756.432 1226.65 756.432Z" fill="url(#logoTextGrad)"/>
</svg>
