<svg width="127" height="127" viewBox="0 0 127 127" fill="none" xmlns="http://www.w3.org/2000/svg">
<g clip-path="url(#clip0_147_334)">
<mask id="mask0_147_334" style="mask-type:luminance" maskUnits="userSpaceOnUse" x="0" y="0" width="127" height="127">
<path d="M126.429 0H0V126.429H126.429V0Z" fill="white"/>
</mask>
<g mask="url(#mask0_147_334)">
<path d="M37.3225 80.9688V36.3184H32.0593V80.9467L25.6776 74.8939L22.0371 78.7099L34.6909 90.7057L47.4545 78.622L43.8358 74.8064L37.3225 80.9688Z" fill="#003057"/>
<path d="M65.7875 80.9688V36.3184H60.5243V80.9467L54.1425 74.8939L50.502 78.7099L63.1559 90.7057L75.9195 78.622L72.3008 74.8064L65.7875 80.9688Z" fill="#003057"/>
<path d="M101.254 74.8064L94.7406 80.9688V36.3184H89.4774V80.9467L83.0956 74.8939L79.4551 78.7099L92.109 90.7057L104.873 78.622L101.254 74.8064Z" fill="#003057"/>
<path d="M63.2253 5.26328C95.1776 5.26328 121.187 31.2508 121.187 63.2253C121.187 95.1998 95.1998 121.187 63.2253 121.187C31.2508 121.187 5.26328 95.1776 5.26328 63.2253C5.26328 31.2727 31.2508 5.26328 63.2253 5.26328ZM63.2253 0C28.3121 0 0 28.3121 0 63.2253C0 98.1383 28.3121 126.45 63.2253 126.45C98.1383 126.45 126.45 98.1383 126.45 63.2253C126.45 28.3121 98.1383 0 63.2253 0Z" fill="#003057"/>
</g>
</g>
<defs>
<clipPath id="clip0_147_334">
<rect width="126.429" height="126.429" fill="white"/>
</clipPath>
</defs>
</svg>
