<svg width="114" height="114" viewBox="0 0 114 114" fill="none" xmlns="http://www.w3.org/2000/svg">
<g clip-path="url(#clip0_147_347)">
<mask id="mask0_147_347" style="mask-type:luminance" maskUnits="userSpaceOnUse" x="0" y="0" width="114" height="114">
<path d="M113.786 0H0V113.786H113.786V0Z" fill="white"/>
</mask>
<g mask="url(#mask0_147_347)">
<path d="M56.8929 0C25.517 0 0 25.517 0 56.8929C0 88.2686 25.517 113.786 56.8929 113.786C88.2686 113.786 113.786 88.2686 113.786 56.8929C113.786 25.517 88.2686 0 56.8929 0ZM56.8929 108.944C28.2043 108.944 4.84193 85.6057 4.84193 56.8929C4.84193 28.1801 28.2043 4.84193 56.8929 4.84193C85.5814 4.84193 108.944 28.1801 108.944 56.8929C108.944 85.6057 85.5814 108.944 56.8929 108.944Z" fill="#143156"/>
</g>
<path d="M72.1396 68.75C65.677 56.3768 47.3266 56.3756 40.8623 68.75L40.8594 68.7549C40.5014 69.4164 40.3217 70.1602 40.3369 70.9121C40.3522 71.6638 40.5621 72.3986 40.9463 73.0449C41.3306 73.6913 41.8761 74.227 42.5293 74.5996C43.1826 74.9722 43.9217 75.1693 44.6738 75.1709H68.3242C69.0738 75.162 69.8086 74.9604 70.458 74.5859C71.1074 74.2114 71.6501 73.6757 72.0332 73.0312C72.4162 72.3869 72.6277 71.6546 72.6465 70.9053C72.6652 70.1561 72.4907 69.4146 72.1406 68.752L72.1396 68.75ZM83.7734 54.4893C81.2438 54.4984 78.7594 55.1604 76.5605 56.4111C74.4554 57.6086 72.6805 59.307 71.3916 61.3535C73.1841 63.0263 74.6639 65.005 75.7627 67.1973H93.7725C94.3517 67.1897 94.9193 67.0329 95.4209 66.7432C95.9225 66.4534 96.3417 66.04 96.6377 65.542C96.9336 65.0439 97.0967 64.4776 97.1113 63.8984C97.1259 63.3202 96.9922 62.748 96.7227 62.2363L96.4805 61.8018C95.2331 59.6513 93.4583 57.8505 91.3203 56.5713C89.0397 55.2069 86.431 54.4873 83.7734 54.4893ZM29.2012 54.4893C26.5486 54.4922 23.946 55.2133 21.6709 56.5771C19.3952 57.9413 17.5321 59.8975 16.2793 62.2363C16.0098 62.748 15.8761 63.3203 15.8906 63.8984C15.9053 64.4776 16.0683 65.0439 16.3643 65.542C16.6601 66.0398 17.0787 66.4534 17.5801 66.7432C18.0817 67.033 18.6502 67.1897 19.2295 67.1973H37.2393C38.3376 65.0061 39.8161 63.0278 41.6074 61.3555C40.3151 59.3068 38.5379 57.6059 36.4287 56.4082C34.2252 55.157 31.7351 54.4963 29.2012 54.4893ZM64.3848 47.5586C64.0422 37.1467 48.9601 37.1447 48.6162 47.5586C48.9574 57.973 64.0422 57.975 64.3848 47.5586ZM29.2178 37.8916C27.5434 37.8916 25.9367 38.5531 24.7471 39.7314C23.5575 40.9099 22.8811 42.5102 22.8652 44.1846C22.8829 45.8563 23.5583 47.4541 24.7461 48.6309C25.9357 49.8093 27.5433 50.4697 29.2178 50.4697C30.8921 50.4696 32.4989 49.8092 33.6885 48.6309C34.8764 47.4541 35.5526 45.8563 35.5703 44.1846L35.5596 43.8721C35.468 42.3122 34.8038 40.8363 33.6885 39.7314C32.4989 38.553 30.8922 37.8917 29.2178 37.8916ZM83.7842 37.8926C82.11 37.8927 80.503 38.5533 79.3135 39.7314C78.1239 40.9097 77.4477 42.5104 77.4316 44.1846C77.4495 45.856 78.1258 47.4533 79.3135 48.6299C80.503 49.8081 82.1099 50.4696 83.7842 50.4697C85.4585 50.4697 87.0653 49.8082 88.2549 48.6299C89.4427 47.4533 90.1188 45.8562 90.1367 44.1846C90.1207 42.5104 89.4444 40.9106 88.2549 39.7324C87.0653 38.5541 85.4585 37.8926 83.7842 37.8926ZM39.5264 44.1807C39.5251 45.755 39.1627 47.3085 38.4668 48.7207C37.8747 49.9222 37.0536 50.9934 36.0537 51.8779C39.5962 53.282 42.6271 55.7379 44.7334 58.9189C46.0949 58.0411 47.5485 57.3159 49.0703 56.7627C47.7977 55.738 46.7491 54.4587 45.9932 53.0039C45.1192 51.322 44.6616 49.4549 44.6602 47.5596V47.5449C45.2147 31.8865 67.7891 31.8952 68.3418 47.5449V47.5596C68.3403 49.455 67.8827 51.322 67.0088 53.0039C66.2527 54.4589 65.2036 55.7379 63.9307 56.7627C65.4518 57.3156 66.9046 58.0407 68.2656 58.918C70.3687 55.7337 73.4005 53.2762 76.9453 51.876C75.9464 50.9917 75.1267 49.9204 74.5352 48.7197C73.8396 47.3079 73.4769 45.7555 73.4756 44.1816V44.1738L73.4766 44.167C73.9632 30.5374 93.6039 30.5407 94.0928 44.167L94.0938 44.1738V44.1816C94.0924 45.7551 93.7294 47.3072 93.0342 48.7188C92.4429 49.9191 91.6234 50.9898 90.625 51.874C94.7147 53.4796 98.113 56.4828 100.207 60.3623L100.209 60.3662C100.796 61.4814 101.087 62.7285 101.054 63.9883C101.02 65.2479 100.664 66.478 100.02 67.5605C99.3746 68.6431 98.462 69.5419 97.3701 70.1709C96.2783 70.7998 95.0431 71.1384 93.7832 71.1533H76.6113C76.5744 72.1114 76.3714 73.0568 76.0107 73.9473C75.5993 74.9629 74.9904 75.887 74.2197 76.666C73.4492 77.4449 72.5324 78.064 71.5215 78.4863C70.5104 78.9087 69.4249 79.1263 68.3291 79.127H44.6709C43.5767 79.1214 42.494 78.9006 41.4854 78.4766C40.4768 78.0526 39.5614 77.434 38.792 76.6562C38.0226 75.8785 37.414 74.9564 37.001 73.9434C36.6386 73.0545 36.4333 72.1103 36.3926 71.1533H19.2197C17.9596 71.1386 16.7238 70.7999 15.6318 70.1709C14.54 69.5419 13.6274 68.643 12.9824 67.5605C12.3375 66.478 11.9816 65.2479 11.9482 63.9883C11.9149 62.7285 12.2061 61.4814 12.793 60.3662L12.7949 60.3623C14.8888 56.4831 18.2867 53.4797 22.376 51.874C21.3778 50.99 20.5589 49.9189 19.9678 48.7188C19.2725 47.3072 18.9095 45.7551 18.9082 44.1816V44.1738L18.9092 44.167C19.3909 30.5286 39.0542 30.5545 39.5264 44.167V44.1807Z" fill="#143156" stroke="#143156" stroke-width="0.8"/>
</g>
<defs>
<clipPath id="clip0_147_347">
<rect width="113.786" height="113.786" fill="white"/>
</clipPath>
</defs>
</svg>
