<svg width="127" height="127" viewBox="0 0 127 127" fill="none" xmlns="http://www.w3.org/2000/svg">
<g clip-path="url(#clip0_147_283)">
<path d="M63.2143 5.05714C95.2851 5.05714 121.371 31.1436 121.371 63.2143C121.371 95.2851 95.2851 121.371 63.2143 121.371C31.1436 121.371 5.05714 95.2851 5.05714 63.2143C5.05714 31.1436 31.1436 5.05714 63.2143 5.05714ZM63.2143 0C28.2989 0 0 28.2989 0 63.2143C0 98.1298 28.2989 126.429 63.2143 126.429C98.1298 126.429 126.429 98.1298 126.429 63.2143C126.429 28.2989 98.1298 0 63.2143 0Z" fill="#153156"/>
<path d="M30.1456 48.2399C28.6993 47.7178 27.0962 48.4713 26.5753 49.9214C26.0519 51.3728 26.8054 52.9721 28.2555 53.4943L33.9156 55.5323C32.42 61.2962 32.6071 67.5228 34.7513 73.4308L29.3188 75.9885C27.9243 76.6459 27.325 78.3084 27.9812 79.7029C28.4578 80.7144 29.4604 81.3061 30.5085 81.3061C30.9067 81.3061 31.3113 81.2213 31.6943 81.0406L37.1257 78.4829C40.2307 83.7777 44.8176 87.9511 50.3804 90.5442L48.3475 96.1943C47.824 97.6444 48.5776 99.2437 50.0277 99.7659C50.34 99.8784 50.6586 99.9328 50.9721 99.9328C52.1163 99.9328 53.1884 99.2235 53.598 98.0844L55.631 92.433C58.1368 93.0867 60.6881 93.4179 63.2344 93.4179C66.7201 93.4179 70.1943 92.7971 73.5257 91.5834L76.0846 97.0224C76.5613 98.0338 77.5638 98.6255 78.6119 98.6255C79.0102 98.6255 79.4147 98.5408 79.7978 98.36C81.1923 97.7026 81.7916 96.04 81.1354 94.6455L78.5791 89.2116C79.6322 88.5934 80.6272 87.9006 81.5893 87.1698L101.887 107.472C102.062 107.52 102.234 107.586 102.412 107.653C102.78 107.792 103.176 107.86 103.56 107.941C104.364 108.11 105.172 108.253 105.974 108.435C106.133 108.472 106.288 108.522 106.446 108.564C106.195 107.106 105.943 105.626 105.88 104.155L85.4289 83.7006C87.5403 81.4211 89.3015 78.8205 90.6365 75.9543L96.2854 77.9886C96.5977 78.1011 96.9162 78.1555 97.2298 78.1555C98.374 78.1555 99.4461 77.4462 99.8557 76.3071C100.379 74.8569 99.6256 73.2576 98.1755 72.7355L92.5266 70.7025C94.0754 64.7616 93.7821 58.5653 91.6808 52.7977L97.111 50.24C98.5055 49.5826 99.1047 47.9201 98.4486 46.5256C97.7911 45.131 96.1299 44.5318 94.7354 45.1892L89.3015 47.7481C86.1167 42.3307 81.4389 38.2192 76.0454 35.6982L78.0835 30.0354C78.6069 28.584 77.8534 26.9847 76.4032 26.4626C74.9569 25.9404 73.355 26.6939 72.8329 28.1441L70.7948 33.8068C65.0335 32.3099 58.8082 32.497 52.9027 34.6425L50.345 29.2061C49.6876 27.8116 48.0276 27.2136 46.6318 27.8697C45.2373 28.5259 44.638 30.1897 45.2942 31.5842L47.8519 37.0207C45.9491 38.1395 44.217 39.4531 42.6493 40.9071L21.9354 20.1867C20.7874 19.82 19.5888 19.4989 18.4219 19.1133C18.5774 20.7758 18.5673 22.4712 18.561 24.1199L39.1687 44.7315C37.8501 46.4623 36.7211 48.3208 35.807 50.2767L30.1456 48.2399ZM50.2414 42.0955C51.0265 41.6113 51.8432 41.1625 52.6979 40.7604C53.5513 40.3584 54.4173 40.0107 55.2909 39.7136C57.884 38.8324 60.5453 38.4101 63.1788 38.4101C65.1144 38.4101 67.0298 38.6516 68.8934 39.0941C70.7089 39.5252 72.47 40.1599 74.1439 40.9855C78.1985 42.9843 81.7233 46.0957 84.2165 50.1402C84.7007 50.9265 85.1597 51.7369 85.5617 52.5929C85.9625 53.4437 86.3064 54.3098 86.6047 55.1872C88.1054 59.5894 88.3267 64.2761 87.2483 68.7997C87.0333 69.7012 86.7729 70.5963 86.4543 71.48C86.1357 72.365 85.7589 73.2172 85.3506 74.0491C84.324 76.1377 83.0205 78.0505 81.4781 79.7447L46.6027 44.858C47.7166 43.8415 48.924 42.9084 50.2414 42.0955ZM39.1966 57.4325C39.6277 55.6158 40.2623 53.8534 41.0867 52.1794C41.6783 50.9771 42.3813 49.8279 43.1639 48.7305L77.6043 83.181C77.1441 83.5097 76.6712 83.8245 76.187 84.1229C75.3968 84.6084 74.5852 85.0648 73.733 85.4656C72.8822 85.8663 72.0161 86.2102 71.14 86.5086C66.7403 88.0093 62.0548 88.2305 57.5325 87.1521C56.6323 86.9372 55.7372 86.6767 54.8522 86.3581C53.9672 86.0395 53.1151 85.6628 52.2844 85.2532C48.1136 83.2025 44.6469 80.0468 42.2119 76.0871C41.7264 75.2969 41.2712 74.4852 40.8705 73.6344C40.4684 72.7797 40.1245 71.9124 39.8287 71.0388C38.3014 66.5379 38.1523 61.8335 39.1966 57.4325Z" fill="#003057"/>
<path d="M64.9708 51.3245C66.7487 51.3245 68.1897 49.8832 68.1897 48.1056C68.1897 46.3277 66.7487 44.8867 64.9708 44.8867C63.1932 44.8867 61.752 46.3277 61.752 48.1056C61.752 49.8832 63.1932 51.3245 64.9708 51.3245Z" fill="#003057"/>
<path d="M48.1204 71.9752C49.5762 71.9752 50.7564 70.795 50.7564 69.3392C50.7564 67.8833 49.5762 66.7031 48.1204 66.7031C46.6646 66.7031 45.4844 67.8833 45.4844 69.3392C45.4844 70.795 46.6646 71.9752 48.1204 71.9752Z" fill="#003057"/>
<path d="M78.9302 65.7003C80.9885 65.7003 82.6574 64.0318 82.6574 61.9732C82.6574 59.915 80.9885 58.2461 78.9302 58.2461C76.8717 58.2461 75.2031 59.915 75.2031 61.9732C75.2031 64.0318 76.8717 65.7003 78.9302 65.7003Z" fill="#003057"/>
</g>
<defs>
<clipPath id="clip0_147_283">
<rect width="126.429" height="126.429" fill="white"/>
</clipPath>
</defs>
</svg>
