<svg width="251" height="119" viewBox="0 0 251 119" fill="none" xmlns="http://www.w3.org/2000/svg">
<g clip-path="url(#clip0_147_345)">
<path fill-rule="evenodd" clip-rule="evenodd" d="M209.139 11.1351C208.865 6.922 205.329 4.09693 201.596 2.81831C192.208 -0.389769 180.747 4.61529 174.59 11.8263C169.363 17.9487 167.177 26.1618 168.24 34.015C161.723 33.9775 155.166 32.7392 148.456 31.2677L146.976 30.9394C141.873 29.8076 136.557 28.6269 131.347 29.2057C126.446 29.7529 121.7 31.5125 117.467 34.0179C113.302 36.483 109.518 39.7198 106.705 43.6651C103.788 47.7602 102.322 52.8603 101.204 57.7012C99.1569 66.5709 97.8264 75.5933 95.7444 84.463L95.5341 85.3269C94.8343 88.1693 93.7487 92.5552 96.0467 94.5537C98.0251 96.2759 101.475 96.0167 104.286 95.5242C104.646 97.4623 104.654 99.4782 104.66 101.48C104.68 105.791 104.695 110.024 108.248 113.209C111.445 116.074 115.295 116.259 119.353 115.919C124.698 115.475 130.045 115.072 135.318 114.047C137.91 113.543 136.813 109.583 134.224 110.087C129.668 110.974 125.052 111.346 120.43 111.726L119.883 111.772C116.283 112.074 112.41 112.406 110.014 109.074C108.706 107.259 108.781 105.1 108.856 102.954C108.882 102.211 108.908 101.468 108.876 100.74C108.755 98.0671 108.643 95.1499 107.793 92.5897C107.636 92.0723 107.286 91.635 106.815 91.3681C106.345 91.1012 105.79 91.0252 105.265 91.1556C103.89 91.4674 102.487 91.6354 101.078 91.6567H100.781C100.113 91.6682 99.0878 91.6797 98.9035 91.4321C98.6011 91.0289 98.866 89.7071 99.0187 88.9353C99.0481 88.7947 99.075 88.6535 99.0993 88.512C99.6119 85.2405 100.582 82.0238 101.259 78.7841C103.286 69.1426 103.981 58.5997 108.067 49.5543C112.427 39.8984 124.39 32.8026 134.924 33.1482C141.688 33.3728 148.41 35.5758 155.016 36.8717C159.69 37.7933 164.413 38.4268 169.156 38.3433C169.536 39.6104 170.005 40.8602 170.57 42.0697C173.801 48.9985 179.091 54.0237 179.477 62.1015C179.82 69.1886 177.464 76.2067 173.942 82.2772C170.256 88.6358 165.372 94.1707 160.617 99.7345C156.672 104.354 150.751 109.704 150.302 116.097C150.118 118.738 154.224 118.724 154.411 116.097C154.642 112.745 157.504 109.877 159.523 107.398C161.665 104.768 163.894 102.214 166.095 99.6308C169.856 95.2161 173.582 90.7121 176.637 85.7733C182.339 76.5522 185.91 64.5608 182.014 53.969C179.906 48.2497 175.419 43.8149 173.389 38.0784C184.079 36.8199 194.322 31.8926 201.899 24.2266C205.239 20.8515 209.473 16.2496 209.139 11.1351ZM184.972 30.8098C180.956 32.5116 176.688 33.5428 172.338 33.8624C171.627 29.2374 172.205 24.3735 174.115 20.1172C178.259 10.899 191.35 2.3777 201.527 7.1927C208.687 10.5851 202.633 17.6521 199.002 21.3238C194.983 25.3632 190.217 28.5848 184.972 30.8098ZM88.6831 21.6751C85.5614 19.8551 81.7141 20.8083 78.9984 22.9854C75.8278 25.5225 73.6708 29.4793 71.7471 33.0935C70.6384 35.1727 69.6478 37.3267 68.7378 39.5096C64.2827 34.7378 58.3072 30.6543 52.4929 28.6557C49.3597 27.5787 45.639 27.4347 43.0184 29.8767C40.5044 32.218 40.0177 35.7918 40.4641 39.141C41.639 47.8811 47.4619 56.1835 52.7435 62.689C58.7507 70.0814 65.9213 76.5321 73.8465 81.4882C76.0582 82.8705 78.0625 79.2218 75.8537 77.8395C65.5729 71.4118 56.3057 62.3088 49.855 51.6191L49.7974 51.5269C47.2316 47.2764 43.3957 40.9207 44.3547 35.619C45.6938 28.2266 55.2345 34.398 58.4829 36.5002C61.6276 38.5391 64.6283 40.9466 67.1107 43.8437C66.9638 44.2555 66.7824 44.6529 66.647 45.0676L66.4109 45.776C65.2359 49.2951 63.8277 53.5255 65.2878 57.0849C66.4858 60.005 69.498 61.9345 72.4383 60.6184C79.5859 57.4276 75.0992 47.9272 71.6319 43.0201C73.5729 37.8105 76.0898 32.5031 79.4534 28.3245C81.3541 25.9631 85.141 23.2158 87.727 26.1877C89.3685 28.074 89.3397 31.3713 89.3167 33.894V34.4901C89.2591 47.3541 85.4664 61.3815 77.4232 71.2218C75.7529 73.2664 78.5578 76.2643 80.2396 74.2081C85.1381 68.2124 88.4643 60.9985 90.5838 53.4218C92.6428 46.0841 93.9675 37.7673 93.1007 30.1042C92.7263 26.781 91.6003 23.3799 88.6831 21.6751ZM69.4807 56.3189C67.6146 54.8214 68.8933 50.6227 69.9069 47.7631C70.1373 48.1461 70.3677 48.5233 70.5751 48.9236C71.246 50.2138 71.9199 51.6104 72.1474 53.0791C72.4066 54.7494 71.4851 57.9258 69.4807 56.3189ZM113.947 71.1382C114.342 70.9816 114.759 70.8921 115.183 70.8733C116.453 70.7812 117.763 70.8963 119.001 71.1498C121.708 71.7027 124.199 72.846 126.483 74.5537C127.408 75.2448 128.77 74.7552 129.311 73.7243C129.582 73.1951 129.655 72.587 129.519 72.0084C129.383 71.4298 129.046 70.9183 128.568 70.5652C125.723 68.426 122.393 67.0241 118.875 66.4845C115.638 65.995 111.776 65.9201 109.723 69.2693C109.095 70.3002 109.55 71.8323 110.466 72.4313C111.488 73.0965 112.666 72.6329 113.297 71.6019C113.118 71.8956 113.674 71.2794 113.51 71.3801C113.608 71.311 113.711 71.2448 113.821 71.1872L113.947 71.1382Z" fill="#003057" stroke="#003057" stroke-width="1.43989"/>
</g>
<defs>
<clipPath id="clip0_147_345">
<rect width="250.541" height="118.071" fill="white"/>
</clipPath>
</defs>
</svg>
