<svg width="117" height="117" viewBox="0 0 117 117" fill="none" xmlns="http://www.w3.org/2000/svg">
<path fill-rule="evenodd" clip-rule="evenodd" d="M1.95703 58.0608C1.95703 26.637 27.4261 1.16797 58.8498 1.16797C90.2737 1.16797 115.743 26.637 115.743 58.0608C115.743 89.4846 90.2737 114.954 58.8498 114.954C27.4261 114.954 1.95703 89.4846 1.95703 58.0608ZM110.565 58.0608C110.565 29.5006 87.41 6.34522 58.8498 6.34522C30.2897 6.34522 7.13429 29.5006 7.13429 58.0608C7.13429 86.621 30.2897 109.776 58.8498 109.776C87.41 109.776 110.565 86.621 110.565 58.0608Z" fill="#143156"/>
<path d="M45.0636 93.5037C44.2292 93.5037 43.4137 93.4847 42.6362 93.4468C41.3277 93.371 40.3225 92.271 40.3984 90.9625C40.4743 89.654 41.5742 88.6489 42.8827 88.7247C51.2839 89.1419 63.4021 87.2076 70.0017 80.3615C73.6238 76.5876 75.2168 71.6189 74.7048 65.5883C73.5859 66.252 72.3912 66.8589 71.1205 67.3899C47.9841 77.1755 41.0242 63.4074 33.6661 48.8428L32.5472 46.624C32.2438 46.0361 32.2058 45.3534 32.4334 44.7276C32.661 44.1018 33.1351 43.6087 33.7419 43.3621C36.2073 42.3191 38.9761 41.4468 41.8397 40.8399C42.0104 36.0799 43.0534 25.8961 48.9892 24.2462C49.1978 24.1894 49.4064 24.1514 49.615 24.1514C55.475 24.1514 58.9834 24.5686 63.44 26.9202C65.052 25.3462 66.9484 23.9807 69.0914 22.8619C69.7362 22.5205 70.4758 22.5015 71.1395 22.786C79.0666 26.2754 85.4575 37.2936 85.4007 47.3636C85.3627 53.2805 83.1629 58.3629 79.0855 62.2695C79.2183 63.1419 79.3321 64.0332 79.4079 64.9625C80.0907 72.4913 78.0615 78.7685 73.3963 83.6044C66.3226 90.9435 54.2234 93.4848 45.0447 93.4848L45.0636 93.5037ZM37.952 46.8326C45.3481 61.4351 50.2788 71.05 69.281 63.0281C71.0826 62.2695 72.6187 61.3972 73.9083 60.4679C71.8602 52.0288 66.645 46.8895 58.3007 45.1258C58.3007 45.1258 58.2817 45.1258 58.2628 45.1258C54.2044 44.2724 49.5013 44.2724 44.6274 45.1258C44.6085 45.1258 44.5705 45.1258 44.5516 45.1258C41.9155 45.5999 39.6967 46.2258 37.952 46.8136V46.8326ZM61.4867 41.0295C67.7449 42.8501 74.5531 47.0981 77.758 56.6561C80.0148 53.546 80.6596 50.1703 80.6785 47.3446C80.7354 38.9624 75.4254 30.6182 70.2672 27.6408C68.4845 28.7028 67.0053 29.9355 65.7537 31.4147C65.7537 31.4147 65.7157 31.4527 65.7157 31.4716C63.6676 33.9179 62.3211 36.9901 61.5057 41.0295H61.4867ZM51.7959 39.74C53.5407 39.74 55.2285 39.8538 56.8594 40.0624C57.599 36.3643 58.7748 33.3111 60.4247 30.7131C57.3525 29.2338 54.7544 28.9304 50.0512 28.9115C48.3634 29.7459 46.9411 34.5248 46.6377 40.0434C48.4013 39.8348 50.1271 39.74 51.8149 39.74H51.7959Z" fill="#143156"/>
</svg>
