<svg width="114" height="117" viewBox="0 0 114 117" fill="none" xmlns="http://www.w3.org/2000/svg">
<g clip-path="url(#clip0_147_289)">
<path fill-rule="evenodd" clip-rule="evenodd" d="M36.0898 57.7305C36.0898 46.6544 45.0685 37.6758 56.1446 37.6758C67.22 37.6758 76.1993 46.6547 76.1993 57.7305V71.3848C76.1993 82.1676 67.6726 91.0097 56.8807 91.4259L56.1446 91.4395C45.0685 91.4395 36.0898 82.4609 36.0898 71.3848V57.7305ZM71.079 57.7305C71.079 49.4826 64.3921 42.7961 56.1446 42.7961C47.8964 42.7961 41.2102 49.4823 41.2102 57.7305V71.3848C41.2102 79.633 47.8964 86.3192 56.0953 86.3198L56.7328 86.3078C64.7284 85.9993 71.079 79.414 71.079 71.3848V57.7305Z" fill="#003057"/>
<path d="M64.3462 25.0215L69.2655 26.4429L65.0343 41.0854L60.1152 39.664L64.3462 25.0215Z" fill="#003057"/>
<path d="M60.9091 23.3988C61.2258 22.1326 62.4344 21.3246 63.6975 21.4775L64.0138 21.536L70.841 23.2428C72.2127 23.5858 73.0465 24.9758 72.7036 26.3475C72.3872 27.6137 71.1786 28.4217 69.9155 28.2688L69.5991 28.2103L62.772 26.5035C61.4002 26.1606 60.5661 24.7706 60.9091 23.3988Z" fill="#003057"/>
<path d="M83.5614 34.6191L87.1438 38.2774L73.7917 51.3523L70.209 47.6938L83.5614 34.6191Z" fill="#003057"/>
<path d="M81.3651 31.5207C82.258 30.5814 83.6943 30.4688 84.7168 31.207L84.9845 31.4294L90.0843 36.2784C91.109 37.2525 91.1498 38.873 90.1756 39.8977C89.2824 40.8371 87.8465 40.9499 86.824 40.2116L86.5563 39.9891L81.4562 35.1402C80.4315 34.1658 80.3907 32.5453 81.3651 31.5207Z" fill="#003057"/>
<path d="M47.0083 53.0015C47.8905 52.052 49.3251 51.9224 50.3561 52.6484L50.6267 52.8677L74.5217 75.056C75.5578 76.0181 75.6175 77.6379 74.6554 78.674C73.7736 79.6238 72.3389 79.7534 71.3079 79.0271L71.0373 78.808L47.1423 56.6198C46.1062 55.6577 46.0462 54.0378 47.0083 53.0015Z" fill="#003057"/>
<path d="M52.1133 46.1934C52.985 45.2345 54.4181 45.0897 55.457 45.805L55.7298 46.0215L74.5044 63.0893C75.5506 64.0404 75.6277 65.6596 74.6767 66.7058C73.8046 67.6648 72.3716 67.8096 71.3326 67.0943L71.0599 66.8781L52.2852 49.8102C51.239 48.8589 51.1619 47.2399 52.1133 46.1934Z" fill="#003057"/>
<path d="M67.6599 69.252V74.3723H38.6445V69.252H67.6599Z" fill="#003057"/>
<path d="M58.2726 60.7207V65.8411H38.6445V60.7207H58.2726Z" fill="#003057"/>
<path fill-rule="evenodd" clip-rule="evenodd" d="M0.599609 58.0578C0.599609 26.9685 25.8022 1.76562 56.8912 1.76562C87.9812 1.76562 113.184 26.9682 113.184 58.0578C113.184 89.1475 87.9812 114.35 56.8912 114.35C25.8022 114.35 0.599609 89.1475 0.599609 58.0578ZM108.064 58.0581C108.064 29.7962 85.1533 6.88598 56.8912 6.88598C28.6301 6.88598 5.71996 29.7964 5.71996 58.0581C5.71996 86.3196 28.6301 109.23 56.8912 109.23C85.1533 109.23 108.064 86.3196 108.064 58.0581Z" fill="#003057"/>
</g>
<defs>
<clipPath id="clip0_147_289">
<rect width="113.786" height="116.946" fill="white"/>
</clipPath>
</defs>
</svg>
