<svg width="114" height="114" viewBox="0 0 114 114" fill="none" xmlns="http://www.w3.org/2000/svg">
<g clip-path="url(#clip0_147_311)">
<mask id="mask0_147_311" style="mask-type:luminance" maskUnits="userSpaceOnUse" x="0" y="0" width="114" height="114">
<path d="M113.786 0H0V113.786H113.786V0Z" fill="white"/>
</mask>
<g mask="url(#mask0_147_311)">
<path d="M56.8929 0C25.517 0 0 25.517 0 56.8929C0 88.2686 25.517 113.786 56.8929 113.786C88.2686 113.786 113.786 88.2686 113.786 56.8929C113.786 25.517 88.2686 0 56.8929 0ZM56.8929 108.944C28.2043 108.944 4.84193 85.6057 4.84193 56.8929C4.84193 28.1801 28.2043 4.84193 56.8929 4.84193C85.5814 4.84193 108.944 28.1801 108.944 56.8929C108.944 85.6057 85.5814 108.944 56.8929 108.944Z" fill="#143156"/>
<path d="M35.2006 59.0457C39.5826 59.0457 43.1412 55.4867 43.1412 51.1047C43.1412 46.7227 39.5826 43.1641 35.2006 43.1641C30.8186 43.1641 27.2598 46.7227 27.2598 51.1047C27.2598 55.4867 30.8186 59.0457 35.2006 59.0457ZM35.2006 48.006C36.9194 48.006 38.2993 49.3859 38.2993 51.1047C38.2993 52.8238 36.9194 54.2035 35.2006 54.2035C33.4818 54.2035 32.1018 52.8238 32.1018 51.1047C32.1018 49.3859 33.4818 48.006 35.2006 48.006Z" fill="#143156"/>
<path d="M48.9531 51.1047C48.9531 55.4867 52.5121 59.0457 56.8941 59.0457C61.2761 59.0457 64.8348 55.4867 64.8348 51.1047C64.8348 46.7227 61.2761 43.1641 56.8941 43.1641C52.5121 43.1641 48.9531 46.7227 48.9531 51.1047ZM56.8941 48.006C58.6129 48.006 59.9929 49.3859 59.9929 51.1047C59.9929 52.8238 58.6129 54.2035 56.8941 54.2035C55.1753 54.2035 53.7953 52.8238 53.7953 51.1047C53.7953 49.3859 55.1753 48.006 56.8941 48.006Z" fill="#143156"/>
<path d="M70.6465 51.1047C70.6465 55.4867 74.2051 59.0457 78.5871 59.0457C82.9692 59.0457 86.5281 55.4867 86.5281 51.1047C86.5281 46.7227 82.9692 43.1641 78.5871 43.1641C74.2051 43.1641 70.6465 46.7227 70.6465 51.1047ZM78.5871 48.006C80.3063 48.006 81.6862 49.3859 81.6862 51.1047C81.6862 52.8238 80.3063 54.2035 78.5871 54.2035C76.8684 54.2035 75.4884 52.8238 75.4884 51.1047C75.4884 49.3859 76.8684 48.006 78.5871 48.006Z" fill="#143156"/>
<path d="M46.0481 38.7352C50.4301 38.7352 53.9887 35.1762 53.9887 30.7943C53.9887 26.4124 50.4301 22.8535 46.0481 22.8535C41.6661 22.8535 38.1074 26.4124 38.1074 30.7943C38.1074 35.1762 41.6661 38.7352 46.0481 38.7352ZM46.0481 27.6955C47.7669 27.6955 49.1468 29.0754 49.1468 30.7943C49.1468 32.5133 47.7669 33.8933 46.0481 33.8933C44.3293 33.8933 42.9493 32.5133 42.9493 30.7943C42.9493 29.0754 44.3293 27.6955 46.0481 27.6955Z" fill="#143156"/>
<path d="M67.3511 38.7352C71.7331 38.7352 75.2918 35.1762 75.2918 30.7943C75.2918 26.4124 71.7331 22.8535 67.3511 22.8535C62.9691 22.8535 59.4102 26.4124 59.4102 30.7943C59.4102 35.1762 62.9691 38.7352 67.3511 38.7352ZM67.3511 27.6955C69.0699 27.6955 70.4499 29.0754 70.4499 30.7943C70.4499 32.5133 69.0699 33.8933 67.3511 33.8933C65.632 33.8933 64.2521 32.5133 64.2521 30.7943C64.2521 29.0754 65.632 27.6955 67.3511 27.6955Z" fill="#143156"/>
<path d="M95.19 72.6047C88.5563 65.8986 82.02 62.5817 75.6768 62.9449C70.3023 63.187 65.2183 66.068 60.9816 71.2247C60.5458 71.7573 60.1342 72.2899 59.7227 72.8468C59.7227 72.8708 59.6744 72.8951 59.65 72.9435C58.6576 74.3475 57.7131 75.8728 56.8661 77.4706C56.0187 75.8728 55.0986 74.3235 54.0818 72.9435C54.0818 72.9192 54.0334 72.8951 54.0091 72.8468C53.6219 72.2899 53.1861 71.7573 52.7502 71.2247C48.5136 66.068 43.4296 63.187 38.0551 62.9449C31.7122 62.5817 25.1512 65.8986 18.5419 72.6047C18.082 73.0645 17.8398 73.6938 17.8398 74.3235C17.8398 74.9771 18.1062 75.5824 18.5661 76.0423C21.9313 79.3348 29.9205 84.7579 38.8054 84.2253C43.6717 83.9346 48.005 81.9253 51.7577 78.2696C52.8712 80.1578 53.8397 82.2401 54.566 84.2737C54.566 84.3221 54.6144 84.3464 54.6387 84.3948C54.6871 84.4915 54.7354 84.5642 54.7838 84.6609C54.8808 84.8303 55.0019 84.9757 55.1229 85.1211C55.1953 85.1935 55.268 85.2662 55.3407 85.3145C55.5101 85.4599 55.7039 85.581 55.9216 85.6537C55.9703 85.6537 55.9943 85.726 56.0427 85.726C56.0427 85.726 56.067 85.726 56.0911 85.726C56.3332 85.7987 56.5996 85.8471 56.8661 85.8471C57.1322 85.8471 57.3987 85.7987 57.6408 85.702C57.6408 85.702 57.6648 85.702 57.6891 85.702C57.7375 85.702 57.7618 85.6537 57.8102 85.6293C58.028 85.5326 58.2217 85.4116 58.4155 85.2662C58.4878 85.2178 58.5605 85.1451 58.6089 85.0724C58.7543 84.9273 58.851 84.7819 58.948 84.6125C58.9964 84.5398 59.0448 84.4431 59.0931 84.3704C59.0931 84.3221 59.1418 84.2977 59.1658 84.2494C59.8921 82.1914 60.8606 80.1338 61.9741 78.2453C65.7268 81.9253 70.0602 83.9105 74.9264 84.201C83.7628 84.7092 91.8005 79.3107 95.1657 76.0182C95.6256 75.558 95.892 74.9528 95.892 74.2991C95.892 73.6455 95.6499 73.0402 95.19 72.5803V72.6047ZM38.5393 79.3831C32.7046 79.7463 27.1606 76.7202 23.8923 74.2024C28.8311 69.7477 33.4793 67.6174 37.8613 67.7868C40.9844 67.9322 43.9621 69.3121 46.6977 71.83C45.2937 71.4908 43.8411 71.2247 42.3884 71.1036C39.4591 70.8855 36.5297 71.1277 33.6731 71.854C32.7046 72.0961 32.1237 73.0886 32.3658 74.057C32.6079 75.0254 33.6004 75.6064 34.5688 75.3643C37.0383 74.735 39.5801 74.5172 42.1223 74.7106C43.9138 74.856 45.6326 75.1949 47.3273 75.7274C44.6885 77.9548 41.7591 79.1654 38.5633 79.3591L38.5393 79.3831ZM75.2169 79.3831C72.1665 79.2137 69.3338 78.0759 66.792 76.0423C68.7285 75.3403 70.7625 74.8804 72.8444 74.735C75.3623 74.5412 77.9041 74.735 80.3979 75.3886C81.366 75.6307 82.3588 75.0498 82.6009 74.0813C82.843 73.1129 82.2621 72.1204 81.2937 71.8783C78.4367 71.152 75.5073 70.9099 72.578 71.1277C70.5444 71.2971 68.5351 71.6846 66.5982 72.2899C69.4792 69.4816 72.6023 67.9562 75.9189 67.7868C80.2769 67.6174 84.9493 69.7477 89.8879 74.2024C86.5954 76.7202 81.0272 79.7223 75.2412 79.3831H75.2169Z" fill="#143156"/>
</g>
</g>
<defs>
<clipPath id="clip0_147_311">
<rect width="113.786" height="113.786" fill="white"/>
</clipPath>
</defs>
</svg>
