<svg width="114" height="117" viewBox="0 0 114 117" fill="none" xmlns="http://www.w3.org/2000/svg">
<path fill-rule="evenodd" clip-rule="evenodd" d="M93.9615 48.5288C95.3987 44.8052 92.2699 40.8653 88.3111 41.5041C72.5714 44.0504 62.1619 53.7038 56.2236 68.0143L55.5456 69.7198C54.8932 71.4358 54.3157 73.1821 53.8088 74.9492L53.7351 75.2122L53.145 75.1774L52.2101 75.069C50.6275 74.8405 48.9302 74.3778 47.2064 73.744C46.2989 73.4106 45.4477 73.0531 44.6803 72.6966L44.4262 72.5771L43.7637 72.2481L41.3477 76.7625L42.0986 77.144C42.6657 77.4193 43.362 77.7322 44.1629 78.0568L45.4398 78.5502L46.4939 78.92C48.2491 79.5066 49.9925 79.9381 51.6908 80.1666L52.5024 80.2535L52.1459 82.1066C51.9275 83.3109 51.7379 84.5183 51.5751 85.7269C51.0687 89.4879 50.9057 92.5474 50.9218 94.5526L50.9224 94.6202L56.0421 94.5371L56.0425 94.001C56.0576 92.2159 56.221 89.5944 56.6496 86.41L56.9259 84.5344C57.1259 83.2856 57.3576 82.0403 57.6225 80.8025L57.7334 80.3041L58.4048 80.2602C60.0392 80.1246 61.9011 79.8189 63.9351 79.2816C69.0662 77.926 74.1325 75.3525 78.8457 71.2863C84.9804 65.994 90.1191 58.498 93.9615 48.5288ZM60.9529 69.9768C66.2601 57.1873 75.3105 48.794 89.1279 46.5587C89.155 46.5543 89.2091 46.6223 89.1841 46.6864C85.6369 55.8898 80.9805 62.6822 75.5011 67.4093C71.3975 70.9493 67.0304 73.1678 62.6269 74.3313L61.6951 74.562C61.0854 74.703 60.4997 74.8187 59.9406 74.9113L59.1305 75.032L59.6267 73.4994C60.0316 72.3081 60.4731 71.1326 60.9529 69.9768Z" fill="#003057"/>
<path fill-rule="evenodd" clip-rule="evenodd" d="M30.5824 29.8449C26.9493 28.6437 23.2572 31.5475 23.5277 35.3568C24.4941 48.9229 30.389 57.9256 39.5636 62.9761C42.9781 64.8554 46.6142 66.0499 50.262 66.7016L51.0961 66.8416C51.6384 66.9267 52.1536 66.9956 52.6382 67.0502L53.3038 67.1163L53.3655 67.9273C53.5365 70.8406 53.4476 73.5973 53.184 76.0763C53.1518 76.3813 53.1196 76.6553 53.0889 76.8968L52.934 77.9383L57.9678 78.8764L58.0111 78.6305C58.0417 78.4481 58.0752 78.23 58.1103 77.9778L58.2756 76.6177C58.665 72.9567 58.7099 68.7829 58.19 64.3674C56.2916 48.2636 47.8668 35.5626 30.5824 29.8449ZM28.6351 34.9933C28.6218 34.8056 28.8149 34.6535 28.9746 34.7063L29.9975 35.0578C43.1364 39.7474 50.096 49.0474 52.5051 61.1549L52.6527 61.9359L51.9074 61.8373C48.9363 61.3964 45.4602 60.377 42.0327 58.4904C34.3626 54.268 29.4766 46.8062 28.6351 34.9933Z" fill="#003057"/>
<path fill-rule="evenodd" clip-rule="evenodd" d="M0.597656 58.0578C0.597656 26.9685 25.8003 1.76562 56.8892 1.76562C87.9793 1.76562 113.182 26.9682 113.182 58.0578C113.182 89.1475 87.9793 114.35 56.8892 114.35C25.8003 114.35 0.597656 89.1475 0.597656 58.0578ZM108.062 58.0581C108.062 29.7962 85.1514 6.88598 56.8892 6.88598C28.6282 6.88598 5.71801 29.7964 5.71801 58.0581C5.71801 86.3196 28.6282 109.23 56.8892 109.23C85.1514 109.23 108.062 86.3196 108.062 58.0581Z" fill="#003057"/>
</svg>
