<svg width="114" height="114" viewBox="0 0 114 114" fill="none" xmlns="http://www.w3.org/2000/svg">
<g clip-path="url(#clip0_147_360)">
<mask id="mask0_147_360" style="mask-type:luminance" maskUnits="userSpaceOnUse" x="0" y="0" width="114" height="114">
<path d="M113.786 0H0V113.786H113.786V0Z" fill="white"/>
</mask>
<g mask="url(#mask0_147_360)">
<path d="M56.8929 0C25.517 0 0 25.517 0 56.8929C0 88.2686 25.517 113.786 56.8929 113.786C88.2686 113.786 113.786 88.2686 113.786 56.8929C113.786 25.517 88.2686 0 56.8929 0ZM56.8929 108.944C28.2043 108.944 4.84193 85.6057 4.84193 56.8929C4.84193 28.1801 28.2043 4.84193 56.8929 4.84193C85.5814 4.84193 108.944 28.1801 108.944 56.8929C108.944 85.6057 85.5814 108.944 56.8929 108.944Z" fill="#143156"/>
</g>
<path d="M73.2803 18.4062C76.7833 18.4062 79.6337 21.2546 79.6338 24.7568V89.2422C79.6336 92.7455 76.7833 95.5938 73.2803 95.5938H40.7246C37.2215 95.5938 34.3713 92.7442 34.3711 89.2422V24.7568C34.3712 21.2546 37.2216 18.4062 40.7246 18.4062H73.2803ZM40.7246 21.8965C39.1465 21.8965 37.8624 23.1802 37.8623 24.7568V89.2422C37.8625 90.8187 39.1466 92.1025 40.7246 92.1025H73.2803C74.8583 92.1025 76.1424 90.8187 76.1426 89.2422V24.7568C76.1425 23.1802 74.8584 21.8965 73.2803 21.8965H40.7246Z" fill="#143156" stroke="#143156" stroke-width="1.1875"/>
<path d="M60.2617 86.2236C61.2237 86.2236 62.0087 87.0032 62.0088 87.9688C62.0088 88.9336 61.2234 89.7129 60.2617 89.7129H53.7422C52.7807 89.7127 51.9961 88.9335 51.9961 87.9688C51.9961 87.0033 52.7803 86.2238 53.7422 86.2236H60.2617ZM50.2754 24.2832C51.2388 24.2834 52.0195 25.0654 52.0195 26.0293C52.0193 26.9914 51.2391 27.7742 50.2754 27.7744C49.3131 27.7744 48.5237 26.9955 48.5234 26.0293C48.5234 25.0701 49.2923 24.2832 50.2607 24.2832H50.2754ZM65.5 26.0293C65.4997 26.9923 64.7184 27.7744 63.7529 27.7744H54.6689C53.7067 27.7744 52.9221 26.9931 52.9219 26.0293C52.9219 25.0637 53.7069 24.2832 54.6689 24.2832H63.7529C64.719 24.2832 65.498 25.0646 65.5 26.0273V26.0293Z" fill="#143156" stroke="#143156" stroke-width="1.1875"/>
</g>
<defs>
<clipPath id="clip0_147_360">
<rect width="113.786" height="113.786" fill="white"/>
</clipPath>
</defs>
</svg>
