<svg width="127" height="127" viewBox="0 0 127 127" fill="none" xmlns="http://www.w3.org/2000/svg">
<g clip-path="url(#clip0_147_254)">
<mask id="mask0_147_254" style="mask-type:luminance" maskUnits="userSpaceOnUse" x="0" y="0" width="127" height="127">
<path d="M126.429 0H0V126.429H126.429V0Z" fill="white"/>
</mask>
<g mask="url(#mask0_147_254)">
<path d="M63.2136 0.667969C97.7577 0.668772 125.761 28.6719 125.761 63.2154C125.761 97.7589 97.7574 125.762 63.2136 125.763C28.6706 125.763 0.66631 97.7592 0.666016 63.2154C0.666016 28.6717 28.6704 0.667969 63.2136 0.667969ZM63.2136 6.35665C31.8125 6.35665 6.35468 31.8137 6.35468 63.2154C6.35499 94.6171 31.8128 120.071 63.2136 120.071C94.6153 120.071 120.069 94.6168 120.069 63.2154C120.069 31.814 94.6156 6.35744 63.2136 6.35665ZM73.7729 75.6794C76.5771 75.6797 79.3844 76.6187 81.6747 78.4975C82.816 79.4333 84.2004 79.8989 85.5763 79.8989C86.9414 79.8986 88.3011 79.4412 89.4099 78.5284C91.7021 76.6418 94.5091 75.698 97.3177 75.698C98.056 75.698 98.7975 75.7641 99.528 75.8956V81.7075C98.814 81.4296 98.0583 81.2909 97.3025 81.2909C95.9434 81.2909 94.5834 81.7441 93.4717 82.6582C91.1815 84.5445 88.371 85.4886 85.5608 85.4886C82.7572 85.4886 79.953 84.5502 77.6653 82.6737C76.524 81.7372 75.1402 81.2726 73.7637 81.2722C72.4015 81.2722 71.0436 81.7283 69.9364 82.6367L69.8713 82.6892C67.5956 84.5569 64.7987 85.4918 62.0005 85.4918C59.2093 85.4915 56.4111 84.5591 54.1265 82.6952L54.0709 82.6491C52.9564 81.7325 51.5891 81.2722 50.2218 81.2722C48.8586 81.2726 47.495 81.7321 46.3822 82.6459C44.0714 84.5407 41.2529 85.4855 38.4402 85.4855C35.6307 85.4855 32.8236 84.5411 30.5354 82.6582C29.4225 81.7422 28.0576 81.2846 26.6925 81.2846C26.3657 81.2849 26.0376 81.3118 25.7141 81.3649V75.7382C26.0385 75.7122 26.3642 75.698 26.6894 75.698C29.4983 75.6986 32.31 76.6409 34.6006 78.5284C35.716 79.446 37.0843 79.9049 38.4526 79.9049C39.8148 79.9046 41.1774 79.4473 42.2893 78.5344C44.6008 76.638 47.4214 75.6949 50.2344 75.6949C53.0269 75.6949 55.8137 76.6257 58.0929 78.4851L58.1454 78.5284C59.2608 79.4463 60.6297 79.9049 61.9973 79.9049C63.3599 79.9049 64.7244 79.4476 65.8373 78.5344L65.9021 78.482C68.1781 76.6152 70.9735 75.6794 73.7729 75.6794ZM73.7729 59.1567C76.5771 59.1567 79.3848 60.0958 81.6747 61.9748C82.816 62.9104 84.2004 63.376 85.5763 63.376C86.9414 63.376 88.3011 62.9186 89.4099 62.0055C91.7021 60.1189 94.5091 59.1782 97.3177 59.1782C98.056 59.1782 98.7975 59.2414 99.528 59.3726V65.1848C98.814 64.9067 98.0583 64.7683 97.3025 64.7683C95.9434 64.7683 94.5834 65.2215 93.4717 66.1356C91.1815 68.0219 88.371 68.9657 85.5608 68.966C82.7572 68.966 79.953 68.0276 77.6653 66.1511C76.524 65.2146 75.1402 64.7496 73.7637 64.7496C72.4015 64.7496 71.0436 65.2057 69.9364 66.1138L69.8713 66.1662C67.5956 68.0342 64.7987 68.9692 62.0005 68.9692C59.2093 68.9689 56.4111 68.0364 54.1265 66.1726L54.0709 66.1261C52.9564 65.2098 51.5891 64.7496 50.2218 64.7496C48.8586 64.7499 47.495 65.2095 46.3822 66.1233C44.0714 68.0178 41.2529 68.9628 38.4402 68.9628C35.6307 68.9628 32.8236 68.0184 30.5354 66.1356C29.4225 65.2196 28.0575 64.7619 26.6925 64.7619C26.3657 64.7619 26.0376 64.7891 25.7141 64.8422V59.2152C26.0385 59.1896 26.3642 59.1751 26.6894 59.1751C29.4983 59.176 32.31 60.1179 34.6006 62.0055C35.716 62.9234 37.0843 63.3823 38.4526 63.3823C39.8148 63.382 41.1774 62.9243 42.2893 62.0118C44.6008 60.1154 47.4214 59.1719 50.2344 59.1719C53.0269 59.1722 55.8137 60.103 58.0929 61.9625L58.1454 62.0055C59.2608 62.9237 60.6297 63.3823 61.9973 63.3823C63.3599 63.382 64.7244 62.9246 65.8373 62.0118L65.9021 61.9593C68.1778 60.0923 70.9735 59.1567 73.7729 59.1567ZM73.7729 42.6338C76.5771 42.6341 79.3848 43.5731 81.6747 45.4519C82.816 46.3878 84.2004 46.8565 85.5763 46.8565C86.9414 46.8562 88.3011 46.396 89.4099 45.4828C91.7021 43.5962 94.5091 42.6556 97.3177 42.6556C98.056 42.6556 98.7975 42.7185 99.528 42.85V48.6622C98.814 48.3841 98.0583 48.2453 97.3025 48.2453C95.9434 48.2453 94.5834 48.6989 93.4717 49.6126C91.1815 51.4993 88.371 52.4431 85.5608 52.4431C82.7572 52.4431 79.9534 51.5046 77.6653 49.6281C76.524 48.6916 75.1402 48.227 73.7637 48.227C72.4015 48.227 71.0436 48.6828 69.9364 49.5911L69.8713 49.6436C67.5956 51.5116 64.7987 52.4462 62.0005 52.4462C59.2093 52.4462 56.4111 51.5135 54.1265 49.6499L54.0709 49.6035C52.9564 48.6872 51.5891 48.227 50.2218 48.227C48.8586 48.227 47.495 48.6866 46.3822 49.6003C44.0714 51.4952 41.2529 52.4402 38.4402 52.4402C35.6307 52.4402 32.8236 51.4955 30.5354 49.6126C29.4225 48.6967 28.0575 48.2393 26.6925 48.2393C26.3657 48.2393 26.0376 48.2662 25.7141 48.3196V42.6926C26.0385 42.6667 26.3642 42.6524 26.6894 42.6524C29.4983 42.6531 32.31 43.5953 34.6006 45.4828C35.716 46.4007 37.0843 46.8593 38.4526 46.8593C39.8151 46.8593 41.1774 46.4017 42.2893 45.4889C44.6008 43.5924 47.4214 42.6493 50.2344 42.6493C53.0269 42.6493 55.8137 43.5804 58.0929 45.4395L58.1454 45.4828C59.2608 46.4007 60.6297 46.8593 61.9973 46.8593C63.3599 46.8593 64.7244 46.402 65.8373 45.4889L65.9021 45.4364C68.1778 43.5697 70.9735 42.6338 73.7729 42.6338Z" fill="#003057"/>
<mask id="mask1_147_254" style="mask-type:luminance" maskUnits="userSpaceOnUse" x="0" y="0" width="126" height="126">
<path d="M63.2136 0.667969C97.7577 0.668772 125.761 28.6719 125.761 63.2154C125.761 97.7589 97.7574 125.762 63.2136 125.763C28.6706 125.763 0.66631 97.7592 0.666016 63.2154C0.666016 28.6717 28.6704 0.667969 63.2136 0.667969ZM63.2136 6.35665C31.8125 6.35665 6.35468 31.8137 6.35468 63.2154C6.35499 94.6171 31.8128 120.071 63.2136 120.071C94.6153 120.071 120.069 94.6168 120.069 63.2154C120.069 31.814 94.6156 6.35744 63.2136 6.35665ZM73.7729 75.6794C76.5771 75.6797 79.3844 76.6187 81.6747 78.4975C82.816 79.4333 84.2004 79.8989 85.5763 79.8989C86.9414 79.8986 88.3011 79.4412 89.4099 78.5284C91.7021 76.6418 94.5091 75.698 97.3177 75.698C98.056 75.698 98.7975 75.7641 99.528 75.8956V81.7075C98.814 81.4296 98.0583 81.2909 97.3025 81.2909C95.9434 81.2909 94.5834 81.7441 93.4717 82.6582C91.1815 84.5445 88.371 85.4886 85.5608 85.4886C82.7572 85.4886 79.953 84.5502 77.6653 82.6737C76.524 81.7372 75.1402 81.2726 73.7637 81.2722C72.4015 81.2722 71.0436 81.7283 69.9364 82.6367L69.8713 82.6892C67.5956 84.5569 64.7987 85.4918 62.0005 85.4918C59.2093 85.4915 56.4111 84.5591 54.1265 82.6952L54.0709 82.6491C52.9564 81.7325 51.5891 81.2722 50.2218 81.2722C48.8586 81.2726 47.495 81.7321 46.3822 82.6459C44.0714 84.5407 41.2529 85.4855 38.4402 85.4855C35.6307 85.4855 32.8236 84.5411 30.5354 82.6582C29.4225 81.7422 28.0576 81.2846 26.6925 81.2846C26.3657 81.2849 26.0376 81.3118 25.7141 81.3649V75.7382C26.0385 75.7122 26.3642 75.698 26.6894 75.698C29.4983 75.6986 32.31 76.6409 34.6006 78.5284C35.716 79.446 37.0843 79.9049 38.4526 79.9049C39.8148 79.9046 41.1774 79.4473 42.2893 78.5344C44.6008 76.638 47.4214 75.6949 50.2344 75.6949C53.0269 75.6949 55.8137 76.6257 58.0929 78.4851L58.1454 78.5284C59.2608 79.4463 60.6297 79.9049 61.9973 79.9049C63.3599 79.9049 64.7244 79.4476 65.8373 78.5344L65.9021 78.482C68.1781 76.6152 70.9735 75.6794 73.7729 75.6794ZM73.7729 59.1567C76.5771 59.1567 79.3848 60.0958 81.6747 61.9748C82.816 62.9104 84.2004 63.376 85.5763 63.376C86.9414 63.376 88.3011 62.9186 89.4099 62.0055C91.7021 60.1189 94.5091 59.1782 97.3177 59.1782C98.056 59.1782 98.7975 59.2414 99.528 59.3726V65.1848C98.814 64.9067 98.0583 64.7683 97.3025 64.7683C95.9434 64.7683 94.5834 65.2215 93.4717 66.1356C91.1815 68.0219 88.371 68.9657 85.5608 68.966C82.7572 68.966 79.953 68.0276 77.6653 66.1511C76.524 65.2146 75.1402 64.7496 73.7637 64.7496C72.4015 64.7496 71.0436 65.2057 69.9364 66.1138L69.8713 66.1662C67.5956 68.0342 64.7987 68.9692 62.0005 68.9692C59.2093 68.9689 56.4111 68.0364 54.1265 66.1726L54.0709 66.1261C52.9564 65.2098 51.5891 64.7496 50.2218 64.7496C48.8586 64.7499 47.495 65.2095 46.3822 66.1233C44.0714 68.0178 41.2529 68.9628 38.4402 68.9628C35.6307 68.9628 32.8236 68.0184 30.5354 66.1356C29.4225 65.2196 28.0575 64.7619 26.6925 64.7619C26.3657 64.7619 26.0376 64.7891 25.7141 64.8422V59.2152C26.0385 59.1896 26.3642 59.1751 26.6894 59.1751C29.4983 59.176 32.31 60.1179 34.6006 62.0055C35.716 62.9234 37.0843 63.3823 38.4526 63.3823C39.8148 63.382 41.1774 62.9243 42.2893 62.0118C44.6008 60.1154 47.4214 59.1719 50.2344 59.1719C53.0269 59.1722 55.8137 60.103 58.0929 61.9625L58.1454 62.0055C59.2608 62.9237 60.6297 63.3823 61.9973 63.3823C63.3599 63.382 64.7244 62.9246 65.8373 62.0118L65.9021 61.9593C68.1778 60.0923 70.9735 59.1567 73.7729 59.1567ZM73.7729 42.6338C76.5771 42.6341 79.3848 43.5731 81.6747 45.4519C82.816 46.3878 84.2004 46.8565 85.5763 46.8565C86.9414 46.8562 88.3011 46.396 89.4099 45.4828C91.7021 43.5962 94.5091 42.6556 97.3177 42.6556C98.056 42.6556 98.7975 42.7185 99.528 42.85V48.6622C98.814 48.3841 98.0583 48.2453 97.3025 48.2453C95.9434 48.2453 94.5834 48.6989 93.4717 49.6126C91.1815 51.4993 88.371 52.4431 85.5608 52.4431C82.7572 52.4431 79.9534 51.5046 77.6653 49.6281C76.524 48.6916 75.1402 48.227 73.7637 48.227C72.4015 48.227 71.0436 48.6828 69.9364 49.5911L69.8713 49.6436C67.5956 51.5116 64.7987 52.4462 62.0005 52.4462C59.2093 52.4462 56.4111 51.5135 54.1265 49.6499L54.0709 49.6035C52.9564 48.6872 51.5891 48.227 50.2218 48.227C48.8586 48.227 47.495 48.6866 46.3822 49.6003C44.0714 51.4952 41.2529 52.4402 38.4402 52.4402C35.6307 52.4402 32.8236 51.4955 30.5354 49.6126C29.4225 48.6967 28.0575 48.2393 26.6925 48.2393C26.3657 48.2393 26.0376 48.2662 25.7141 48.3196V42.6926C26.0385 42.6667 26.3642 42.6524 26.6894 42.6524C29.4983 42.6531 32.31 43.5953 34.6006 45.4828C35.716 46.4007 37.0843 46.8593 38.4526 46.8593C39.8151 46.8593 41.1774 46.4017 42.2893 45.4889C44.6008 43.5924 47.4214 42.6493 50.2344 42.6493C53.0269 42.6493 55.8137 43.5804 58.0929 45.4395L58.1454 45.4828C59.2608 46.4007 60.6297 46.8593 61.9973 46.8593C63.3599 46.8593 64.7244 46.402 65.8373 45.4889L65.9021 45.4364C68.1778 43.5697 70.9735 42.6338 73.7729 42.6338Z" fill="white"/>
</mask>
<g mask="url(#mask1_147_254)">
<path d="M126.429 0H0V126.429H126.429V0Z" fill="#003057"/>
</g>
</g>
</g>
<defs>
<clipPath id="clip0_147_254">
<rect width="126.429" height="126.429" fill="white"/>
</clipPath>
</defs>
</svg>
