<svg width="114" height="117" viewBox="0 0 114 117" fill="none" xmlns="http://www.w3.org/2000/svg">
<g clip-path="url(#clip0_147_277)">
<path fill-rule="evenodd" clip-rule="evenodd" d="M0 58.0608C0 26.6397 25.4715 1.16797 56.8919 1.16797C88.3138 1.16797 113.786 26.6394 113.786 58.0608C113.786 89.4821 88.3138 114.954 56.8919 114.954C25.4715 114.954 0 89.4818 0 58.0608ZM108.611 58.0608C108.611 29.4976 85.4559 6.34304 56.8922 6.34304C28.3297 6.34304 5.1751 29.4979 5.1751 58.0608C5.1751 86.6239 28.3297 109.779 56.8922 109.779C85.4559 109.779 108.611 86.6242 108.611 58.0608Z" fill="#003057"/>
<path d="M81.9304 92.978H30.5306C28.5688 92.978 26.607 91.9972 25.2337 90.6239C23.8604 89.2505 23.2719 87.0924 23.6643 84.9346L28.1764 57.0767C29.7459 48.0522 37.3969 41.5781 46.4214 41.5781H65.4511C74.4756 41.5781 81.9304 48.0522 83.4997 56.6844L88.6005 84.7383C88.9931 86.7002 88.4045 88.8583 87.0312 90.4276C85.8542 91.9972 84.0883 92.978 81.9304 92.978ZM46.6177 46.6789C40.1436 46.6789 34.4543 51.3874 33.4732 57.8615L28.765 85.7194C28.5688 86.5039 28.9612 86.8965 29.1574 87.0924C29.3535 87.2887 29.7459 87.6809 30.5306 87.6809H81.9304C82.7152 87.6809 83.1075 87.2887 83.3038 87.0924C83.4997 86.8965 83.8923 86.3079 83.696 85.5231L78.5953 57.6652C77.4182 51.3874 71.9252 46.6789 65.4511 46.6789H46.6177Z" fill="#003057"/>
<path d="M56.0279 82.3822C47.5919 82.3822 40.9219 75.5159 40.9219 67.2762C40.9219 59.0366 47.7882 52.1699 56.0279 52.1699C64.2675 52.1699 71.1339 59.0366 71.1339 67.2762C71.1339 75.5159 64.4638 82.3822 56.0279 82.3822ZM56.0279 57.0747C50.5349 57.0747 46.0226 61.587 46.0226 67.08C46.0226 72.573 50.5349 77.0852 56.0279 77.0852C61.5209 77.0852 66.0331 72.573 66.0331 67.08C66.0331 61.587 61.7172 57.0747 56.0279 57.0747Z" fill="#003057"/>
<path d="M62.5034 63.3556L58.776 68.8486C57.9912 70.0256 56.2256 70.4179 55.0485 69.6334C53.8715 68.8486 53.4789 67.083 54.2637 65.9059C54.46 65.7097 54.6563 65.3171 55.0485 65.1211L60.5415 61.3937C61.1301 61.0011 62.1112 61.1974 62.5034 61.7859C62.8956 62.3745 62.8956 62.963 62.5034 63.3556Z" fill="#003057"/>
<path d="M66.6223 39.0264H46.2193C36.8026 39.0264 29.3477 33.9257 29.3477 27.2555C29.3477 25.8822 30.5247 24.7051 31.8981 24.7051C33.2714 24.7051 34.4485 25.8822 34.4485 27.2555C34.4485 30.3944 39.3529 33.9257 46.2193 33.9257H66.6223C73.4886 33.9257 78.3931 30.3944 78.3931 27.2555C78.3931 25.8822 79.5702 24.7051 80.9435 24.7051C82.3168 24.7051 83.4939 25.8822 83.4939 27.2555C83.4939 33.9257 76.039 39.0264 66.6223 39.0264Z" fill="#003057"/>
</g>
<defs>
<clipPath id="clip0_147_277">
<rect width="113.786" height="116.946" fill="white"/>
</clipPath>
</defs>
</svg>
