<svg width="251" height="119" viewBox="0 0 251 119" fill="none" xmlns="http://www.w3.org/2000/svg">
<mask id="mask0_147_324" style="mask-type:luminance" maskUnits="userSpaceOnUse" x="17" y="2" width="219" height="113">
<path d="M17.2793 2.87891H235.61V114.404H17.2793V2.87891Z" fill="white"/>
</mask>
<g mask="url(#mask0_147_324)">
<path fill-rule="evenodd" clip-rule="evenodd" d="M169.576 108.925C190.829 110.137 212.139 110.054 233.392 108.766C236.358 108.588 236.341 113.196 233.392 113.374C214.74 114.528 196.042 114.709 177.371 113.918C165.731 113.429 153.714 113.129 142.247 110.946C136.896 109.93 131.217 107.974 126.667 104.697C125.581 105.285 124.507 105.832 123.479 106.342C114.298 110.903 104.761 113.224 94.523 112.81L94.2034 112.798C86.4855 112.487 78.8311 112.182 71.1075 112.251C69.466 112.265 67.8044 112.297 66.1255 112.329C54.448 112.548 42.0131 112.784 31.5163 107.499C23.3665 103.401 19.2628 95.9802 18.3326 87.0874C17.2095 76.3861 17.2527 65.2875 17.2959 54.4739C17.2959 53.4948 17.3017 52.5185 17.3046 51.5452C17.3247 45.3392 17.5263 39.1275 18.0936 32.9447C18.54 28.049 18.7531 22.445 20.4838 17.8143C21.6646 14.6667 23.4039 10.9921 25.9929 8.75449C28.5731 6.52554 32.5559 5.73936 35.8129 5.15476C46.6323 3.21379 58.0535 3.15619 69.0139 2.95461C81.3826 2.72999 93.7512 3.0266 106.105 3.56224C118.402 4.095 130.687 4.8639 142.967 5.61553C144.597 5.71632 146.299 5.76816 148.041 5.82287C155.995 6.07341 164.795 6.34987 171.07 11.1389C178.287 16.6508 178.025 26.517 177.798 35.0152C177.769 36.1498 177.737 37.2614 177.726 38.3298C177.579 50.727 176.897 63.112 175.681 75.4502C175.399 78.3761 170.785 78.3962 171.073 75.4502C172.214 63.8073 172.905 52.1298 173.089 40.435C173.104 39.6862 173.124 38.9087 173.155 38.1167C122.952 36.9648 72.7375 36.1095 22.5371 34.9576C22.0332 41.3997 21.8805 47.8821 21.918 54.3126C21.9727 64.5647 22.0562 74.9434 22.7761 85.1695C23.4011 94.1602 27.3262 101 35.8187 104.415C45.1089 108.153 55.6431 107.937 65.6705 107.733C67.3214 107.696 68.9725 107.668 70.6237 107.649L73.0139 107.626C77.3912 107.577 81.7771 107.531 86.1457 107.741C87.4272 107.805 88.7087 107.885 89.9874 107.963C93.4921 108.176 96.9996 108.395 100.507 108.257C105 108.087 109.253 106.969 113.492 105.527C116.744 104.405 119.899 103.018 122.923 101.38C121.434 99.7641 120.233 97.9058 119.37 95.8851C116.358 88.6886 118.69 78.6554 126.898 76.2479C134.126 74.1284 141.524 78.9175 141.518 86.667C141.515 93.4863 136.666 98.4021 131.122 102.059C133.648 103.594 136.421 104.738 138.984 105.466C148.767 108.245 159.482 108.349 169.576 108.925ZM27.7467 13.7768C29.8172 10.8279 33.6848 10.1973 37.0397 9.60114C46.3126 7.93375 56.1384 7.88479 65.5438 7.63713C75.7814 7.36643 86.0248 7.47587 96.2595 7.79552C108.044 8.16413 119.816 8.82072 131.58 9.52627C137.279 9.87184 142.981 10.2232 148.68 10.5659C153.726 10.8682 158.981 10.8481 163.825 12.5011C172.954 15.6228 173.564 24.8841 173.322 33.512C123.191 32.3601 73.0543 31.5019 22.9201 30.3557C23.2081 27.7582 23.571 25.1721 24.0289 22.6091C24.6038 19.4271 25.8721 16.4107 27.7438 13.7739L27.7467 13.7768ZM136.343 89.708C139.983 79.433 125.132 76.9938 122.909 86.8714C121.795 91.8131 123.787 95.8794 127.065 99.0011C130.883 96.6713 134.765 94.1659 136.343 89.708Z" fill="#003057"/>
</g>
<path d="M150.408 60.1845L150.371 60.4322C150.181 61.6191 149.86 62.7812 149.412 63.8965L149.366 64.0002C149.279 64.1557 149.213 64.317 149.129 64.4725C148.833 65.0437 148.49 65.5898 148.104 66.1053C147.355 67.0989 147.943 68.677 148.931 69.2558C150.109 69.9441 151.332 69.4286 152.081 68.4293C154.011 65.8519 154.895 62.5258 155.085 59.3494C155.278 56.1816 154.653 52.7201 152.801 50.088C152.081 49.0743 150.785 48.5963 149.645 49.2644C148.643 49.8519 148.101 51.3925 148.821 52.4149C149.167 52.9044 149.463 53.4285 149.714 53.9757C149.928 54.506 150.099 55.0531 150.224 55.6114C150.293 55.908 150.348 56.2075 150.396 56.5099C150.408 56.5761 150.422 56.6769 150.425 56.746C150.445 56.8958 150.454 57.0455 150.468 57.1953C150.533 58.0641 150.525 58.9368 150.445 59.8044L150.408 60.1845ZM141.803 59.4242C141.734 59.8683 141.624 60.305 141.475 60.7288C141.446 60.7749 141.426 60.8267 141.391 60.8728C141.075 61.2729 140.894 61.7628 140.873 62.2724C140.873 62.8397 141.124 63.5107 141.544 63.9023C141.985 64.3055 142.563 64.605 143.174 64.5791C143.779 64.5478 144.355 64.3087 144.804 63.9023C145.409 63.4012 145.763 62.5402 145.993 61.8173C146.244 61.0657 146.342 60.2594 146.42 59.479C146.482 58.8515 146.478 58.2191 146.405 57.5927C146.299 56.7489 146.163 55.8044 145.628 55.1075C145.245 54.6093 144.885 54.2234 144.254 54.0477C143.654 53.8881 143.016 53.9709 142.477 54.2781C141.985 54.5949 141.55 55.07 141.417 55.6575C141.291 56.2162 141.282 56.9534 141.648 57.4343C141.677 57.4689 141.691 57.5121 141.714 57.5495C141.751 57.682 141.786 57.8145 141.815 57.9498C141.855 58.4394 141.846 58.9347 141.8 59.4242" fill="#003057"/>
<path d="M158.153 75.3933C165.376 66.8519 166.116 53.5761 159.314 44.5336C158.571 43.5401 157.327 43.0275 156.163 43.71C155.184 44.2802 154.585 45.8612 155.334 46.8605C160.834 54.1636 160.874 65.0607 154.896 72.1363C152.99 74.3854 156.235 77.6655 158.153 75.3933Z" fill="#003057"/>
<path fill-rule="evenodd" clip-rule="evenodd" d="M53.1006 44.3055C54.5837 44.3199 56.0553 44.3142 57.4347 44.9333C58.2084 45.2849 58.9039 45.7878 59.4801 46.4125C60.0563 47.0372 60.5016 47.771 60.7896 48.5705C61.3944 50.2206 61.2763 52.176 61.1669 53.9327C61.0532 56.2161 60.7576 58.4868 60.2828 60.7232C59.9027 62.549 59.3814 64.274 58.002 65.6131C55.7903 67.7671 52.853 67.7556 49.9761 67.7441C49.665 67.7412 49.354 67.7383 49.0459 67.7412C47.8796 67.747 46.7133 67.7441 45.547 67.7412C43.6924 67.7412 41.8407 67.7383 39.989 67.7642C35.9429 67.698 32.6283 64.6224 32.4555 60.536C32.4065 59.3553 32.467 58.1602 32.5246 56.9708C32.5534 56.4179 32.5793 55.865 32.5966 55.3178C32.6081 54.9089 32.6081 54.4942 32.611 54.0738C32.6167 52.8009 32.6196 51.4906 32.899 50.2782C33.6765 46.8599 36.755 44.7548 40.1272 44.5849C43.0012 44.438 45.8868 44.3747 48.7637 44.3257C50.2092 44.2988 51.6549 44.2921 53.1006 44.3055ZM56.2223 57.4345C56.47 55.793 56.5823 54.1314 56.6024 52.4755C56.6024 52.3142 56.6082 52.1472 56.614 51.9802C56.6485 51.0529 56.6859 50.0392 55.966 49.3884C55.4476 48.9247 54.768 48.9247 54.1028 48.9247L53.786 48.9218C51.4139 48.8892 49.0413 48.9084 46.6701 48.9794C46.0164 48.9938 45.354 48.9967 44.6917 48.9996C43.079 49.0082 41.4461 49.0169 39.8651 49.1954C37.0516 49.5122 37.1178 52.6569 37.1668 55.0471C37.1754 55.4906 37.1841 55.9082 37.1754 56.2768C37.1409 57.5554 37.0718 58.8398 37.066 60.1213C37.0602 61.8463 38.2265 63.1278 39.989 63.1566C41.832 63.1278 43.6751 63.1336 45.5182 63.1364H48.5131C49.858 63.1307 51.2057 63.1249 52.5448 63.0904C53.5067 63.0616 54.3936 62.8801 55.0214 62.0652C55.9055 60.9132 56.0121 58.8225 56.2223 57.4345Z" fill="#003057"/>
</svg>
