<svg width="251" height="119" viewBox="0 0 251 119" fill="none" xmlns="http://www.w3.org/2000/svg">
<g clip-path="url(#clip0_147_343)">
<path fill-rule="evenodd" clip-rule="evenodd" d="M241.372 51.3298C243.151 53.1959 245.283 55.0332 246.544 57.3053C247.837 59.6293 247.756 62.1434 247.523 64.7035C246.917 71.3141 246.221 77.9162 245.435 84.5078C245.196 86.5121 244.917 88.6258 243.203 89.9505C241.562 91.2177 239.284 91.0852 237.208 90.9642C236.704 90.9354 236.211 90.9066 235.745 90.898L230.633 90.8145C231.388 92.1622 231.966 93.5906 232.197 95.1629C232.562 97.6079 232.033 99.978 231.215 102.285C230.524 104.234 229.694 106.066 228.197 107.543C226.61 109.11 224.655 110.057 222.558 110.786C220.231 111.592 217.899 112.387 215.396 112.306C212.786 112.209 210.236 111.493 207.958 110.216C203.808 107.912 200.626 103.845 200.061 99.1284C199.885 97.57 200.02 95.992 200.457 94.4859C200.894 92.9797 201.626 91.5753 202.61 90.3537L193.899 90.2097C193.571 90.2152 193.247 90.1438 192.951 90.0013C192.656 89.8588 192.399 89.6491 192.199 89.389C189.176 92.8159 184.015 92.2774 178.955 91.7475L178.051 91.6525C161.242 89.9392 144.353 89.1221 127.456 89.2047C122.492 89.2277 117.541 89.4063 112.597 89.628C113.705 91.3184 114.589 93.1183 114.895 95.1601C115.257 97.6079 114.728 99.978 113.913 102.285C113.221 104.234 112.392 106.066 110.892 107.543C109.308 109.11 107.35 110.057 105.253 110.786C102.929 111.592 100.594 112.387 98.0911 112.306C95.4809 112.209 92.9313 111.492 90.6526 110.216C86.5058 107.912 83.3236 103.845 82.7592 99.1284C82.446 96.4064 83.085 93.66 84.5677 91.3559C83.0155 91.4653 81.4719 91.5747 79.9197 91.6755C67.7209 92.4646 54.1053 92.3235 43.692 85.1183C40.7331 83.0649 38.1651 80.499 36.1096 77.5416C25.7136 82.898 13.9871 85.7576 2.18575 85.3573C-0.725704 85.2594 -0.731464 80.7928 2.18575 80.8908C13.2067 81.2651 24.1239 78.6388 33.8115 73.6855C30.805 67.6783 29.7654 60.7323 31.2543 54.031C33.6502 43.2376 43.2745 32.9798 54.6525 31.3384C59.1565 30.6904 64.6914 31.6091 67.1507 35.8279C70.1342 40.9453 66.4538 47.1973 63.8044 51.6955L63.7353 51.8165C58.0046 61.5357 49.7108 69.5732 40.0261 75.3587C46.6899 84.6172 58.4682 87.2954 69.4373 87.5056C77.1263 87.6496 84.8211 86.9873 92.5072 86.3249C96.991 85.939 101.472 85.5531 105.95 85.3285C130.691 84.0904 155.491 84.7836 180.125 87.4019C180.562 87.4451 181.049 87.5171 181.564 87.5978C184.142 87.9837 187.445 88.479 188.974 86.371C190.391 84.4185 190.477 81.4552 190.552 78.8778C190.572 78.1838 190.593 77.5156 190.639 76.9051C191.37 66.6417 191.87 56.3631 192.139 46.0771C192.487 32.8301 192.427 19.5831 192.015 6.33609C154.038 3.60107 115.903 3.88225 77.9701 7.17699C75.0586 7.43041 75.0874 2.96387 77.9701 2.70756C116.641 -0.654791 155.521 -0.885926 194.23 2.01642C195.494 2.11145 196.456 2.97538 196.499 4.25401C196.683 9.74287 196.787 15.2375 196.845 20.7321C196.891 20.7321 196.931 20.7321 196.974 20.7264C197.035 20.7235 197.095 20.7177 197.164 20.7321C202.693 21.8264 208.632 20.8156 213.683 23.7271C218.967 26.7739 223.002 32.0525 227.131 36.3866C231.883 41.3686 236.623 46.3507 241.372 51.3327V51.3298ZM241.294 80.7957C241.879 75.2435 242.561 69.6913 243.045 64.1275C243.301 61.1902 242.783 59.422 240.836 57.2938C238.806 55.0735 236.681 52.931 234.601 50.7567L223.03 38.6127C219.488 34.8949 215.949 30.1461 211.393 27.5831C207.14 25.1929 201.66 25.9042 196.865 25.1756C196.914 36.9424 196.703 48.7121 196.148 60.4702C195.932 65.0381 195.671 69.6038 195.364 74.1665C195.111 77.867 195.192 81.867 194.204 85.4782C194.181 85.5733 194.146 85.6539 194.117 85.7461L229.205 86.322C230.175 86.3393 231.183 86.4027 232.205 86.466C234.282 86.5898 236.41 86.7194 238.359 86.4718C238.59 86.443 238.797 86.4228 238.99 86.4055C240.165 86.2961 240.649 86.25 240.899 84.5078C241.078 83.281 241.159 82.034 241.294 80.7957ZM41.5696 43.7531C45.0859 39.8366 50.1888 36.3808 55.5654 35.7099C57.7454 35.4392 60.6309 35.5284 62.3818 37.0461C65.0687 39.3787 63.0672 43.3758 61.7944 45.9158L61.7828 45.936C56.4552 56.62 47.9282 65.4033 37.7367 71.5142C33.3651 62.4227 34.6409 51.4565 41.5668 43.7531H41.5696ZM110.382 95.5402C110.002 93.6799 108.936 92.0096 107.761 90.5323C107.612 90.3345 107.487 90.1199 107.387 89.893C102.011 90.1925 96.6426 90.5294 91.2718 90.9009C91.0809 91.1884 90.828 91.4295 90.5317 91.6064C87.5137 93.4236 86.5864 97.245 87.6606 100.433C88.7059 103.534 91.577 106.049 94.6527 107.14C98.2409 108.41 101.708 107.543 105.106 106.086C107.995 104.845 109.149 102.558 109.987 99.7073C110.391 98.3394 110.673 96.9657 110.382 95.5402ZM227.687 95.5402C227.978 96.9657 227.699 98.3394 227.293 99.7073C226.452 102.558 225.3 104.845 222.408 106.086C219.01 107.543 215.543 108.41 211.955 107.14C208.882 106.051 206.008 103.534 204.966 100.433C203.891 97.245 204.819 93.4236 207.837 91.6064C208.274 91.348 208.602 90.9382 208.758 90.4545L225.21 90.7252C226.328 92.1565 227.321 93.7576 227.687 95.5402Z" fill="#003057" stroke="#003057" stroke-width="0.863934"/>
</g>
<defs>
<clipPath id="clip0_147_343">
<rect width="250.541" height="118.071" fill="white"/>
</clipPath>
</defs>
</svg>
